<svg width="38" height="41" viewBox="0 0 38 41" fill="none" xmlns="http://www.w3.org/2000/svg">
<path d="M5.0203 2.51562H2.50977V5.02924H5.0203V2.51562Z" fill="black"/>
<path d="M34.8211 2.51562H32.3105V5.02924H34.8211V2.51562Z" fill="black"/>
<path d="M5.0203 27.4336H2.50977V29.9472H5.0203V27.4336Z" fill="black"/>
<path d="M34.8211 27.4336H32.3105V29.9472H34.8211V27.4336Z" fill="black"/>
<path d="M19.9226 32.4609H17.4121V34.9745H19.9226V32.4609Z" fill="black"/>
<path d="M19.9226 15.0156H17.4121V17.5292H19.9226V15.0156Z" fill="black"/>
<path d="M27.3797 15.0156H24.8691V17.5292H27.3797V15.0156Z" fill="black"/>
<path d="M12.3914 15.0156H9.88086V17.5292H12.3914V15.0156Z" fill="black"/>
<path d="M12.3914 32.4609H9.88086V40.0018H12.3914V32.4609Z" fill="black"/>
<path d="M2.51053 5.02734H0V27.4314H2.51053V5.02734Z" fill="black"/>
<path d="M37.3328 5.02734H34.8223V27.4314H37.3328V5.02734Z" fill="black"/>
<path d="M17.4129 34.9727H14.9023V37.4863H17.4129V34.9727Z" fill="black"/>
<path d="M14.9012 37.4883H12.3906V40.0019H14.9012V37.4883Z" fill="black"/>
<path d="M32.3121 0H5.02148V2.51361H32.3121V0Z" fill="black"/>
<path d="M32.3077 29.9453H19.9414V32.4589H32.3077V29.9453Z" fill="black"/>
<path d="M9.87994 29.9453H5.02148V32.4589H9.87994V29.9453Z" fill="black"/>
</svg>
