<svg width="21" height="20" viewBox="0 0 21 20" fill="none" xmlns="http://www.w3.org/2000/svg">
<g clip-path="url(#clip0_817_1876)">
<path d="M10.04 0C4.5 0 0 4.5 0 10.04C0 15.01 3.62 19.13 8.37 19.93V12.13H5.94V9.33H8.36V7.26C8.36 4.86 9.83 3.55 11.97 3.55C13 3.55 13.88 3.63 14.13 3.66V6.17H12.64C11.48 6.17 11.25 6.72 11.25 7.54V9.33H14.03L13.67 12.14H11.25V20C16.22 19.4 20.07 15.17 20.07 10.04C20.08 4.5 15.59 0 10.04 0Z" fill="#010002"/>
</g>
<defs>
<clipPath id="clip0_817_1876">
<rect width="20.08" height="20" fill="white"/>
</clipPath>
</defs>
</svg>
