<svg viewBox="0 0 415 110" fill="none" xmlns="http://www.w3.org/2000/svg">
<path d="M51.3664 80.0738C52.3787 80.0738 53.2626 80.4516 54.0181 81.2146C54.7735 81.9701 55.1588 82.8539 55.1588 83.8663C55.1588 84.8786 54.7735 85.7624 54.0181 86.5179C53.2551 87.2809 52.3787 87.6587 51.3664 87.6587H4.7924C3.7121 87.6587 2.80555 87.2809 2.08031 86.5179C1.35507 85.7624 1 84.8786 1 83.8663C1 82.8539 1.36262 81.9701 2.08031 81.2146C2.79799 80.4516 3.70454 80.0738 4.7924 80.0738H24.2908V30.2438H4.7924C3.7121 30.2438 2.80555 29.8812 2.08031 29.1635C1.35507 28.4458 1 27.5393 1 26.4514C1 25.4466 1.36262 24.5552 2.08031 23.7997C2.79799 23.0367 3.70454 22.659 4.7924 22.659H24.2908V4.78485C24.2908 3.78009 24.6534 2.88865 25.3711 2.13319C26.0888 1.37773 26.9953 1 28.0832 1H51.374C52.3863 1 53.2702 1.37773 54.0256 2.13319C54.7811 2.8962 55.1664 3.78009 55.1664 4.78485C55.1664 5.86516 54.7811 6.77171 54.0256 7.49695C53.2626 8.22219 52.3863 8.57726 51.374 8.57726H31.8756V22.659H51.374C52.3863 22.659 53.2702 23.0367 54.0256 23.7997C54.7811 24.5552 55.1664 25.4391 55.1664 26.4514C55.1664 27.5317 54.7811 28.4383 54.0256 29.1635C53.2626 29.8887 52.3863 30.2438 51.374 30.2438H31.8756V80.0738H51.374H51.3664Z" fill="white"/>
<path d="M66.5364 87.6601C65.4561 87.6601 64.5495 87.2823 63.8243 86.5193C63.099 85.7639 62.744 84.88 62.744 83.8677V26.4528C62.744 25.448 63.1066 24.5566 63.8243 23.8012C64.542 23.0381 65.4485 22.6604 66.5364 22.6604H113.11C114.123 22.6604 115.007 23.0381 115.762 23.8012C116.518 24.5566 116.903 25.4405 116.903 26.4528V83.8677C116.903 84.88 116.518 85.7639 115.762 86.5193C114.999 87.2823 114.123 87.6601 113.11 87.6601H66.5364ZM70.3288 60.5769C70.3288 64.12 71.1976 67.3684 72.9276 70.3298C74.6576 73.2912 77.007 75.6558 79.9684 77.4236C82.9298 79.1989 86.2161 80.0752 89.8272 80.0752C93.4383 80.0752 96.7094 79.1914 99.633 77.4236C102.557 75.6558 104.899 73.2912 106.674 70.3298C108.442 67.3684 109.326 64.12 109.326 60.5769V49.7436C109.326 46.1325 108.442 42.8614 106.674 39.9377C104.899 37.0141 102.557 34.6722 99.633 32.8969C96.7094 31.1291 93.4383 30.2452 89.8272 30.2452C86.2161 30.2452 82.9298 31.1291 79.9684 32.8969C77.007 34.6722 74.6576 37.0141 72.9276 39.9377C71.1976 42.8614 70.3288 46.1325 70.3288 49.7436V60.5769Z" fill="white"/>
<path d="M151.562 87.6601C146.576 87.6601 142.044 86.4362 137.964 83.981C133.885 81.5257 130.613 78.2546 128.158 74.1751C125.703 70.0956 124.479 65.5629 124.479 60.5769V26.4528C124.479 25.448 124.857 24.5566 125.62 23.8012C126.375 23.0381 127.259 22.6604 128.271 22.6604C129.352 22.6604 130.258 23.0381 130.976 23.8012C131.701 24.5566 132.056 25.4405 132.056 26.4528V60.5769C132.056 64.12 132.94 67.3684 134.708 70.3298C136.476 73.2912 138.84 75.6558 141.802 77.4236C144.763 79.1989 148.012 80.0752 151.555 80.0752C155.166 80.0752 158.445 79.1914 161.413 77.4236C164.375 75.6558 166.717 73.2912 168.454 70.3298C170.184 67.3684 171.053 64.12 171.053 60.5769V26.4528C171.053 25.448 171.438 24.5566 172.194 23.8012C172.957 23.0381 173.833 22.6604 174.846 22.6604C175.926 22.6604 176.832 23.0381 177.558 23.8012C178.275 24.5566 178.638 25.4405 178.638 26.4528V60.5769C178.638 65.5629 177.429 70.0956 175.004 74.1751C172.587 78.2546 169.316 81.5257 165.198 83.981C161.081 86.4362 156.533 87.6601 151.555 87.6601H151.562Z" fill="white"/>
<path d="M186.328 87.6584C185.316 87.6584 184.432 87.2958 183.677 86.5781C182.914 85.8604 182.536 84.9916 182.536 83.9793C182.536 82.899 182.914 81.9698 183.677 81.2143C184.432 80.4513 185.354 80.0736 186.442 80.0736C187.235 80.0736 187.907 79.7865 188.443 79.2048C188.987 78.6307 189.259 77.981 189.259 77.2558V43.245C189.259 39.4904 190.181 36.0606 192.024 32.9557C193.868 29.8507 196.315 27.3577 199.39 25.4842C202.457 23.6106 205.872 22.6663 209.627 22.6663C213.381 22.6663 216.796 23.6031 219.863 25.4842C222.93 27.3577 225.385 29.8507 227.229 32.9557C229.072 36.0606 229.994 39.4904 229.994 43.245V77.2558C229.994 77.981 230.266 78.6307 230.81 79.2048C231.354 79.7865 232.018 80.0736 232.812 80.0736C233.892 80.0736 234.814 80.4513 235.577 81.2143C236.332 81.9698 236.717 82.8915 236.717 83.9793C236.717 84.9916 236.332 85.8529 235.577 86.5781C234.814 87.3034 233.937 87.6584 232.925 87.6584H219.493C218.481 87.6584 217.597 87.2958 216.841 86.5781C216.078 85.8604 215.7 84.9916 215.7 83.9793C215.7 82.899 216.078 81.9698 216.841 81.2143C217.597 80.4513 218.481 80.0736 219.493 80.0736C220.286 80.0736 220.966 79.7865 221.548 79.2048C222.122 78.6307 222.416 77.981 222.416 77.2558V43.0259C222.416 40.6387 221.857 38.4781 220.739 36.529C219.614 34.5799 218.103 33.0236 216.184 31.8678C214.273 30.7119 212.127 30.1378 209.74 30.1378C207.353 30.1378 205.192 30.7195 203.235 31.8678C201.286 33.0236 199.738 34.5799 198.582 36.529C197.426 38.4781 196.852 40.6387 196.852 43.0259V77.2558C196.852 77.981 197.139 78.6307 197.721 79.2048C198.295 79.7865 198.982 80.0736 199.775 80.0736C200.78 80.0736 201.672 80.4513 202.427 81.2143C203.182 81.9698 203.568 82.8915 203.568 83.9793C203.568 84.9916 203.182 85.8529 202.427 86.5781C201.664 87.3034 200.78 87.6584 199.775 87.6584H186.328Z" fill="white"/>
<path d="M273.086 87.6599C268.607 87.6599 264.406 86.8138 260.463 85.1141C256.527 83.4218 253.082 81.0875 250.12 78.1336C247.159 75.1722 244.832 71.7198 243.132 67.7838C241.433 63.8479 240.587 59.6475 240.587 55.1677C240.587 50.6878 241.44 46.4875 243.132 42.544C244.832 38.608 247.159 35.1631 250.12 32.1942C253.082 29.2403 256.527 26.906 260.463 25.2137C264.399 23.514 268.607 22.6678 273.086 22.6678H287.168V4.7937C287.168 3.78894 287.546 2.8975 288.309 2.14204C289.072 1.38658 289.948 1.00885 290.961 1.00885C291.965 1.00885 292.857 1.38658 293.612 2.14204C294.375 2.90505 294.753 3.78894 294.753 4.7937V83.8676C294.753 84.8799 294.375 85.7637 293.612 86.5192C292.857 87.2822 291.973 87.6599 290.961 87.6599H273.086ZM248.171 55.1677C248.171 59.572 249.237 63.6666 251.367 67.459C253.497 71.2514 256.436 74.3034 260.191 76.6151C263.945 78.9268 268.244 80.0827 273.079 80.0827H287.161V30.2526H273.079C268.531 30.2526 264.361 31.3707 260.568 33.6069C256.776 35.8506 253.762 38.8422 251.526 42.5968C249.282 46.3515 248.171 50.5443 248.171 55.1601V55.1677Z" fill="white"/>
<path d="M355.302 81.1615C356.095 81.8792 356.495 82.7857 356.495 83.8736C356.495 84.9539 356.102 85.8906 355.302 86.6914C354.584 87.4091 353.753 87.7717 352.816 87.7717C352.741 87.7717 352.431 87.7566 351.895 87.7188C351.351 87.6811 350.724 87.3034 349.998 86.5781L320.966 57.5458H309.921V83.8736C309.921 84.8859 309.536 85.7698 308.781 86.5252C308.025 87.2807 307.141 87.666 306.129 87.666C305.049 87.666 304.142 87.2882 303.417 86.5252C302.692 85.7698 302.336 84.8859 302.336 83.8736V26.4587C302.336 25.454 302.699 24.5625 303.417 23.8071C304.134 23.044 305.041 22.6663 306.129 22.6663H339.059C342.232 22.6663 345.141 23.4444 347.777 24.9931C350.414 26.5494 352.522 28.642 354.116 31.2785C355.702 33.9151 356.495 36.8538 356.495 40.1023C356.495 43.2828 355.702 46.2064 354.116 48.8732C352.522 51.5475 350.414 53.6628 347.777 55.2115C345.141 56.7601 342.232 57.5383 339.059 57.5383H331.694L355.309 81.1539L355.302 81.1615ZM309.921 40.1098C309.921 42.7842 310.873 45.0883 312.792 47.045C314.703 48.994 316.992 49.9686 319.674 49.9686H339.059C341.802 49.9686 344.128 48.994 346.047 47.045C347.959 45.0959 348.918 42.7464 348.918 40.0041C348.918 37.2618 347.943 34.9501 345.994 33.069C344.045 31.1954 341.696 30.2511 338.954 30.2511H319.674C317 30.2511 314.711 31.2105 312.792 33.1219C310.873 35.0407 309.921 37.3675 309.921 40.1098Z" fill="white"/>
<path d="M364.178 109C363.098 109 362.191 108.622 361.466 107.859C360.741 107.104 360.386 106.22 360.386 105.208C360.386 104.195 360.748 103.311 361.466 102.556C362.184 101.793 363.09 101.415 364.178 101.415H392.447C395.114 101.415 397.554 100.766 399.76 99.4661C401.959 98.1667 403.711 96.4141 405.018 94.2081C406.318 92.0022 406.967 89.562 406.967 86.8953V85.052L361.149 28.725C360.643 28.0073 360.386 27.2065 360.386 26.3377C360.386 26.1942 360.424 25.8316 360.492 25.2574C360.567 24.6757 360.998 24.0638 361.791 23.4141C362.441 22.84 363.196 22.5529 364.065 22.5529C364.208 22.5529 364.586 22.5907 365.206 22.6586C365.818 22.7342 366.452 23.1648 367.102 23.958L391.579 54.1764C392.878 55.7628 394.14 56.7072 395.371 56.9942C396.602 57.2813 397.539 57.4249 398.189 57.4249C399.194 57.4249 400.372 57.1906 401.709 56.7223C403.047 56.2539 404.255 55.2945 405.343 53.8515C406.423 52.4086 406.967 50.6786 406.967 48.654V26.3377C406.967 25.333 407.33 24.4415 408.048 23.6861C408.765 22.9231 409.71 22.5453 410.866 22.5453C411.87 22.5453 412.739 22.9382 413.464 23.7389C414.182 24.5322 414.545 25.4387 414.545 26.4435V86.8877C414.545 90.9294 413.547 94.6312 411.568 97.9854C409.581 101.347 406.914 104.014 403.553 106.001C400.191 107.988 396.459 108.977 392.342 108.977H364.178V109Z" fill="white"/>
<path d="M51.3664 80.0738C52.3787 80.0738 53.2626 80.4516 54.0181 81.2146C54.7735 81.9701 55.1588 82.8539 55.1588 83.8663C55.1588 84.8786 54.7735 85.7624 54.0181 86.5179C53.2551 87.2809 52.3787 87.6587 51.3664 87.6587H4.7924C3.7121 87.6587 2.80555 87.2809 2.08031 86.5179C1.35507 85.7624 1 84.8786 1 83.8663C1 82.8539 1.36262 81.9701 2.08031 81.2146C2.79799 80.4516 3.70454 80.0738 4.7924 80.0738H24.2908V30.2438H4.7924C3.7121 30.2438 2.80555 29.8812 2.08031 29.1635C1.35507 28.4458 1 27.5393 1 26.4514C1 25.4466 1.36262 24.5552 2.08031 23.7997C2.79799 23.0367 3.70454 22.659 4.7924 22.659H24.2908V4.78485C24.2908 3.78009 24.6534 2.88865 25.3711 2.13319C26.0888 1.37773 26.9953 1 28.0832 1H51.374C52.3863 1 53.2702 1.37773 54.0256 2.13319C54.7811 2.8962 55.1664 3.78009 55.1664 4.78485C55.1664 5.86516 54.7811 6.77171 54.0256 7.49695C53.2626 8.22219 52.3863 8.57726 51.374 8.57726H31.8756V22.659H51.374C52.3863 22.659 53.2702 23.0367 54.0256 23.7997C54.7811 24.5552 55.1664 25.4391 55.1664 26.4514C55.1664 27.5317 54.7811 28.4383 54.0256 29.1635C53.2626 29.8887 52.3863 30.2438 51.374 30.2438H31.8756V80.0738H51.374H51.3664Z" stroke="white" stroke-width="0.488" stroke-miterlimit="10"/>
<path d="M66.5364 87.6601C65.4561 87.6601 64.5495 87.2823 63.8243 86.5193C63.099 85.7639 62.744 84.88 62.744 83.8677V26.4528C62.744 25.448 63.1066 24.5566 63.8243 23.8012C64.542 23.0381 65.4485 22.6604 66.5364 22.6604H113.11C114.123 22.6604 115.007 23.0381 115.762 23.8012C116.518 24.5566 116.903 25.4405 116.903 26.4528V83.8677C116.903 84.88 116.518 85.7639 115.762 86.5193C114.999 87.2823 114.123 87.6601 113.11 87.6601H66.5364ZM70.3288 60.5769C70.3288 64.12 71.1976 67.3684 72.9276 70.3298C74.6576 73.2912 77.007 75.6558 79.9684 77.4236C82.9298 79.1989 86.2161 80.0752 89.8272 80.0752C93.4383 80.0752 96.7094 79.1914 99.633 77.4236C102.557 75.6558 104.899 73.2912 106.674 70.3298C108.442 67.3684 109.326 64.12 109.326 60.5769V49.7436C109.326 46.1325 108.442 42.8614 106.674 39.9377C104.899 37.0141 102.557 34.6722 99.633 32.8969C96.7094 31.1291 93.4383 30.2452 89.8272 30.2452C86.2161 30.2452 82.9298 31.1291 79.9684 32.8969C77.007 34.6722 74.6576 37.0141 72.9276 39.9377C71.1976 42.8614 70.3288 46.1325 70.3288 49.7436V60.5769Z" stroke="white" stroke-width="0.488" stroke-miterlimit="10"/>
<path d="M151.562 87.6601C146.576 87.6601 142.044 86.4362 137.964 83.981C133.885 81.5257 130.613 78.2546 128.158 74.1751C125.703 70.0956 124.479 65.5629 124.479 60.5769V26.4528C124.479 25.448 124.857 24.5566 125.62 23.8012C126.375 23.0381 127.259 22.6604 128.271 22.6604C129.352 22.6604 130.258 23.0381 130.976 23.8012C131.701 24.5566 132.056 25.4405 132.056 26.4528V60.5769C132.056 64.12 132.94 67.3684 134.708 70.3298C136.476 73.2912 138.84 75.6558 141.802 77.4236C144.763 79.1989 148.012 80.0752 151.555 80.0752C155.166 80.0752 158.445 79.1914 161.413 77.4236C164.375 75.6558 166.717 73.2912 168.454 70.3298C170.184 67.3684 171.053 64.12 171.053 60.5769V26.4528C171.053 25.448 171.438 24.5566 172.194 23.8012C172.957 23.0381 173.833 22.6604 174.846 22.6604C175.926 22.6604 176.832 23.0381 177.558 23.8012C178.275 24.5566 178.638 25.4405 178.638 26.4528V60.5769C178.638 65.5629 177.429 70.0956 175.004 74.1751C172.587 78.2546 169.316 81.5257 165.198 83.981C161.081 86.4362 156.533 87.6601 151.555 87.6601H151.562Z" stroke="white" stroke-width="0.488" stroke-miterlimit="10"/>
<path d="M186.328 87.6584C185.316 87.6584 184.432 87.2958 183.677 86.5781C182.914 85.8604 182.536 84.9916 182.536 83.9793C182.536 82.899 182.914 81.9698 183.677 81.2143C184.432 80.4513 185.354 80.0736 186.442 80.0736C187.235 80.0736 187.907 79.7865 188.443 79.2048C188.987 78.6307 189.259 77.981 189.259 77.2558V43.245C189.259 39.4904 190.181 36.0606 192.024 32.9557C193.868 29.8507 196.315 27.3577 199.39 25.4842C202.457 23.6106 205.872 22.6663 209.627 22.6663C213.381 22.6663 216.796 23.6031 219.863 25.4842C222.93 27.3577 225.385 29.8507 227.229 32.9557C229.072 36.0606 229.994 39.4904 229.994 43.245V77.2558C229.994 77.981 230.266 78.6307 230.81 79.2048C231.354 79.7865 232.018 80.0736 232.812 80.0736C233.892 80.0736 234.814 80.4513 235.577 81.2143C236.332 81.9698 236.717 82.8915 236.717 83.9793C236.717 84.9916 236.332 85.8529 235.577 86.5781C234.814 87.3034 233.937 87.6584 232.925 87.6584H219.493C218.481 87.6584 217.597 87.2958 216.841 86.5781C216.078 85.8604 215.7 84.9916 215.7 83.9793C215.7 82.899 216.078 81.9698 216.841 81.2143C217.597 80.4513 218.481 80.0736 219.493 80.0736C220.286 80.0736 220.966 79.7865 221.548 79.2048C222.122 78.6307 222.416 77.981 222.416 77.2558V43.0259C222.416 40.6387 221.857 38.4781 220.739 36.529C219.614 34.5799 218.103 33.0236 216.184 31.8678C214.273 30.7119 212.127 30.1378 209.74 30.1378C207.353 30.1378 205.192 30.7195 203.235 31.8678C201.286 33.0236 199.738 34.5799 198.582 36.529C197.426 38.4781 196.852 40.6387 196.852 43.0259V77.2558C196.852 77.981 197.139 78.6307 197.721 79.2048C198.295 79.7865 198.982 80.0736 199.775 80.0736C200.78 80.0736 201.672 80.4513 202.427 81.2143C203.182 81.9698 203.568 82.8915 203.568 83.9793C203.568 84.9916 203.182 85.8529 202.427 86.5781C201.664 87.3034 200.78 87.6584 199.775 87.6584H186.328Z" stroke="white" stroke-width="0.488" stroke-miterlimit="10"/>
<path d="M273.086 87.6599C268.607 87.6599 264.406 86.8138 260.463 85.1141C256.527 83.4218 253.082 81.0875 250.12 78.1336C247.159 75.1722 244.832 71.7198 243.132 67.7838C241.433 63.8479 240.587 59.6475 240.587 55.1677C240.587 50.6878 241.44 46.4875 243.132 42.544C244.832 38.608 247.159 35.1631 250.12 32.1942C253.082 29.2403 256.527 26.906 260.463 25.2137C264.399 23.514 268.607 22.6678 273.086 22.6678H287.168V4.7937C287.168 3.78894 287.546 2.8975 288.309 2.14204C289.072 1.38658 289.948 1.00885 290.961 1.00885C291.965 1.00885 292.857 1.38658 293.612 2.14204C294.375 2.90505 294.753 3.78894 294.753 4.7937V83.8676C294.753 84.8799 294.375 85.7637 293.612 86.5192C292.857 87.2822 291.973 87.6599 290.961 87.6599H273.086ZM248.171 55.1677C248.171 59.572 249.237 63.6666 251.367 67.459C253.497 71.2514 256.436 74.3034 260.191 76.6151C263.945 78.9268 268.244 80.0827 273.079 80.0827H287.161V30.2526H273.079C268.531 30.2526 264.361 31.3707 260.568 33.6069C256.776 35.8506 253.762 38.8422 251.526 42.5968C249.282 46.3515 248.171 50.5443 248.171 55.1601V55.1677Z" stroke="white" stroke-width="0.488" stroke-miterlimit="10"/>
<path d="M355.302 81.1615C356.095 81.8792 356.495 82.7857 356.495 83.8736C356.495 84.9539 356.102 85.8906 355.302 86.6914C354.584 87.4091 353.753 87.7717 352.816 87.7717C352.741 87.7717 352.431 87.7566 351.895 87.7188C351.351 87.6811 350.724 87.3034 349.998 86.5781L320.966 57.5458H309.921V83.8736C309.921 84.8859 309.536 85.7698 308.781 86.5252C308.025 87.2807 307.141 87.666 306.129 87.666C305.049 87.666 304.142 87.2882 303.417 86.5252C302.692 85.7698 302.336 84.8859 302.336 83.8736V26.4587C302.336 25.454 302.699 24.5625 303.417 23.8071C304.134 23.044 305.041 22.6663 306.129 22.6663H339.059C342.232 22.6663 345.141 23.4444 347.777 24.9931C350.414 26.5494 352.522 28.642 354.116 31.2785C355.702 33.9151 356.495 36.8538 356.495 40.1023C356.495 43.2828 355.702 46.2064 354.116 48.8732C352.522 51.5475 350.414 53.6628 347.777 55.2115C345.141 56.7601 342.232 57.5383 339.059 57.5383H331.694L355.309 81.1539L355.302 81.1615ZM309.921 40.1098C309.921 42.7842 310.873 45.0883 312.792 47.045C314.703 48.994 316.992 49.9686 319.674 49.9686H339.059C341.802 49.9686 344.128 48.994 346.047 47.045C347.959 45.0959 348.918 42.7464 348.918 40.0041C348.918 37.2618 347.943 34.9501 345.994 33.069C344.045 31.1954 341.696 30.2511 338.954 30.2511H319.674C317 30.2511 314.711 31.2105 312.792 33.1219C310.873 35.0407 309.921 37.3675 309.921 40.1098Z" stroke="white" stroke-width="0.488" stroke-miterlimit="10"/>
<path d="M364.178 109C363.098 109 362.191 108.622 361.466 107.859C360.741 107.104 360.386 106.22 360.386 105.208C360.386 104.195 360.748 103.311 361.466 102.556C362.184 101.793 363.09 101.415 364.178 101.415H392.447C395.114 101.415 397.554 100.766 399.76 99.4661C401.959 98.1667 403.711 96.4141 405.018 94.2081C406.318 92.0022 406.967 89.562 406.967 86.8953V85.052L361.149 28.725C360.643 28.0073 360.386 27.2065 360.386 26.3377C360.386 26.1942 360.424 25.8316 360.492 25.2574C360.567 24.6757 360.998 24.0638 361.791 23.4141C362.441 22.84 363.196 22.5529 364.065 22.5529C364.208 22.5529 364.586 22.5907 365.206 22.6586C365.818 22.7342 366.452 23.1648 367.102 23.958L391.579 54.1764C392.878 55.7628 394.14 56.7072 395.371 56.9942C396.602 57.2813 397.539 57.4249 398.189 57.4249C399.194 57.4249 400.372 57.1906 401.709 56.7223C403.047 56.2539 404.255 55.2945 405.343 53.8515C406.423 52.4086 406.967 50.6786 406.967 48.654V26.3377C406.967 25.333 407.33 24.4415 408.048 23.6861C408.765 22.9231 409.71 22.5453 410.866 22.5453C411.87 22.5453 412.739 22.9382 413.464 23.7389C414.182 24.5322 414.545 25.4387 414.545 26.4435V86.8877C414.545 90.9294 413.547 94.6312 411.568 97.9854C409.581 101.347 406.914 104.014 403.553 106.001C400.191 107.988 396.459 108.977 392.342 108.977H364.178V109Z" stroke="white" stroke-width="0.488" stroke-miterlimit="10"/>
</svg>
