<svg xmlns="http://www.w3.org/2000/svg" xmlns:xlink="http://www.w3.org/1999/xlink" viewBox="0 0 180 180" fill="none"><g class="rotate-right"><path d="M93.658 9.102l3.531.158-.099 2.081-6.224-.276L91.37 0l2.693.118-.404 8.983zm6.826 2.021c-.771-.613-1.361-1.424-1.706-2.347a5.71 5.71 0 0 1-.266-3.008 5.59 5.59 0 0 1 1.233-2.751 5.5 5.5 0 0 1 2.377-1.657 5.92 5.92 0 0 1 2.959-.237c.988.16 1.919.571 2.703 1.193a5.3 5.3 0 0 1 1.657 2.307c.337.966.424 2.003.251 3.012a6.04 6.04 0 0 1-1.238 2.757 5.42 5.42 0 0 1-2.357 1.657 6.05 6.05 0 0 1-2.945.217 6.06 6.06 0 0 1-2.697-1.203l.03.059zm5.346-1.755c.621-.575 1.034-1.34 1.175-2.175a3.83 3.83 0 0 0-.396-2.44 2.7 2.7 0 0 0-1.973-1.213 2.8 2.8 0 0 0-1.182.003c-.39.085-.757.252-1.076.49-.62.581-1.032 1.348-1.173 2.186a3.88 3.88 0 0 0 .394 2.449c.221.332.513.613.853.822s.722.343 1.119.391c.391.087.797.086 1.187-.002a2.7 2.7 0 0 0 1.072-.511zm11.195 4.369l-3.945-1.272-1.233 1.647-2.683-.868 7.24-9.289 2.959.986.384 11.764-2.722-.878v-2.091zm0-2.189l-.049-4.28-2.545 3.432 2.594.848zm14.547-.623a4.93 4.93 0 0 1 .986 2.643c.03 1.007-.187 2.007-.632 2.911a6.19 6.19 0 0 1-1.922 2.276 4.93 4.93 0 0 1-2.683.858 6.51 6.51 0 0 1-3.048-.72l-3.728-1.834 4.931-9.94 3.719 1.834a6.42 6.42 0 0 1 2.377 1.972zm-3.945 6.094c.404-.152.772-.386 1.082-.686a3.16 3.16 0 0 0 .723-1.059 2.96 2.96 0 0 0 .424-1.225 2.95 2.95 0 0 0-.818-2.394 2.96 2.96 0 0 0-1.086-.709l-1.144-.572-2.841 5.779 1.145.562a3.26 3.26 0 0 0 1.226.406c.432.053.87.019 1.289-.1zm10.979-2.771l-5.849 9.407-2.288-1.42 5.849-9.407 2.288 1.42zm3.481 16.272l-2.13-1.647.601-8.165-4.181 5.404-2.131-1.647 6.766-8.766 2.131 1.647-.612 8.194 4.192-5.443 2.13 1.657-6.766 8.766zm11.736 1.065a2.09 2.09 0 0 0 0-1.203 2.91 2.91 0 0 0-.71-1.154 2.74 2.74 0 0 0-2.081-.907c-.845.094-1.633.469-2.239 1.064a3.79 3.79 0 0 0-1.105 2.219 3.08 3.08 0 0 0 .986 2.239c.408.443.948.743 1.539.858a2.96 2.96 0 0 0 1.736-.286l-2.377-2.465 1.43-1.381 4.073 4.221-1.805 1.745a5.42 5.42 0 0 1-2.051.572 5.59 5.59 0 0 1-2.278-.335 5.74 5.74 0 0 1-2.121-1.42 5.99 5.99 0 0 1-1.519-2.603 5.12 5.12 0 0 1 .049-2.83c.3-.974.851-1.851 1.598-2.544a5.93 5.93 0 0 1 2.604-1.519 5.12 5.12 0 0 1 2.831 0 5.92 5.92 0 0 1 2.544 1.607 5.69 5.69 0 0 1 1.638 3.077c.169 1.097-.066 2.218-.661 3.155l-2.081-2.11zm7.821 20.6l1.647 3.126-1.834.986-2.959-5.512 9.794-5.167 1.312 2.396-7.96 4.171zm1.728 6.92a5.32 5.32 0 0 1 1.154-2.643c.658-.786 1.506-1.391 2.465-1.755a5.99 5.99 0 0 1 3.009-.325 5.38 5.38 0 0 1 2.614 1.213 5.68 5.68 0 0 1 1.696 2.426c.372.939.491 1.959.345 2.958a5.31 5.31 0 0 1-1.164 2.633 6.01 6.01 0 0 1-2.463 1.745c-.956.363-1.989.475-3.001.326a5.3 5.3 0 0 1-2.623-1.193 5.98 5.98 0 0 1-2.032-5.355v-.03zm4.261 3.698a3.35 3.35 0 0 0 2.465-.089c.818-.258 1.504-.824 1.914-1.578.175-.354.272-.742.284-1.136a2.77 2.77 0 0 0-.215-1.151 2.8 2.8 0 0 0-.606-1.018 2.83 2.83 0 0 0-.972-.678c-.807-.284-1.692-.253-2.476.089a3.42 3.42 0 0 0-1.913 1.578 2.77 2.77 0 0 0-.283 1.147c-.01.398.066.794.224 1.16a2.71 2.71 0 0 0 1.578 1.676zm1.823 11.893l-.838-4.004-2.051-.227-.612-2.761 11.678 1.558.67 3.047-10.01 6.271-.612-2.791 1.775-1.095zm1.884-1.124l3.669-2.199-4.251-.463.582 2.662zm7.901 12.257a4.93 4.93 0 0 1-1.795 2.159 5.79 5.79 0 0 1-2.841.937 5.66 5.66 0 0 1-2.959-.513 4.93 4.93 0 0 1-2.101-1.883c-.538-.898-.853-1.913-.917-2.958l-.306-4.132 11.057-.809.296 4.132c.106 1.042-.043 2.095-.434 3.067zm-7.259-.325a3.13 3.13 0 0 0 1.141.594 3.14 3.14 0 0 0 1.285.086 3.24 3.24 0 0 0 1.258-.26 3.26 3.26 0 0 0 1.06-.726c.27-.34.469-.731.584-1.149a3.21 3.21 0 0 0 .086-1.286l-.088-1.272-6.431.463.098 1.282a3.27 3.27 0 0 0 1.007 2.248v.02zm7.959 8.046l-11.076-.266.059-2.702 11.077.266-.06 2.702zm-12.25 11.252l.336-2.682 7.338-3.629-6.786-.848.335-2.672 10.998 1.371-.336 2.682-7.367 3.618 6.805.858-.335 2.673-10.988-1.371zm5.03 10.639a2.05 2.05 0 0 0 .986-.601 2.9 2.9 0 0 0 .641-1.193c.117-.373.154-.766.108-1.153a2.78 2.78 0 0 0-.374-1.096 3.3 3.3 0 0 0-1.973-1.38 3.35 3.35 0 0 0-2.525.158 3.01 3.01 0 0 0-.928.834c-.247.34-.422.727-.512 1.138a2.72 2.72 0 0 0 0 1.755 2.86 2.86 0 0 0 1.125 1.351l.917-3.304 1.913.533-1.568 5.66-2.416-.67c-.612-.383-1.136-.891-1.539-1.489-.443-.638-.74-1.365-.868-2.13-.147-.849-.093-1.721.158-2.544a5.85 5.85 0 0 1 1.469-2.633c.675-.687 1.529-1.169 2.466-1.391.977-.228 1.997-.198 2.959.089a5.92 5.92 0 0 1 2.633 1.479c.689.669 1.171 1.521 1.391 2.456a5.79 5.79 0 0 1-.089 3.007c-.284 1.153-.922 2.187-1.824 2.958-.865.692-1.952 1.042-3.058.986l.908-2.82zm-13.847 17.187l-1.864 3.008-1.776-1.104 3.295-5.296 9.409 5.858-1.43 2.287-7.634-4.753zm-5.11 4.98c.911-.371 1.906-.49 2.88-.345 1.013.155 1.965.585 2.751 1.242.811.628 1.433 1.467 1.796 2.426.351.917.446 1.912.276 2.879a6.03 6.03 0 0 1-1.232 2.682 6.04 6.04 0 0 1-2.358 1.776 5.35 5.35 0 0 1-2.861.335 5.74 5.74 0 0 1-2.742-1.253 5.66 5.66 0 0 1-1.805-2.425c-.357-.912-.459-1.904-.295-2.87.184-.98.608-1.899 1.235-2.675a6.03 6.03 0 0 1 2.355-1.772zm-1.085 5.522c.156.838.625 1.585 1.312 2.09a3.41 3.41 0 0 0 2.327.849 3.05 3.05 0 0 0 2.018-1.11c.501-.619.74-1.41.665-2.204a3.85 3.85 0 0 0-1.324-2.104c-.663-.535-1.484-.835-2.335-.854a2.77 2.77 0 0 0-1.106.346c-.34.192-.635.454-.867.768a2.73 2.73 0 0 0-.594 1.032c-.119.384-.152.789-.096 1.187zm-9.291 7.633l3.028-2.81-.838-1.884 2.071-1.923 4.586 10.847-2.298 2.121-10.464-5.414 2.1-1.972 1.815 1.035zm1.924 1.055l3.757 2.041-1.755-3.895-2.002 1.854zm-6.559 13.015a4.93 4.93 0 0 1-2.771-.444c-.894-.464-1.662-1.14-2.236-1.968a6.19 6.19 0 0 1-1.058-2.785 4.87 4.87 0 0 1 .562-2.771c.504-.93 1.229-1.722 2.111-2.307l3.412-2.367 6.313 9.112-3.413 2.357c-.861.626-1.864 1.03-2.92 1.173zm-3.402-6.41c-.063.428-.038.863.074 1.281a3.15 3.15 0 0 0 .577 1.145c.212.382.507.712.862.966a2.97 2.97 0 0 0 1.193.506 2.96 2.96 0 0 0 1.294-.053c.423-.113.815-.318 1.148-.6l1.056-.72-3.67-5.295-1.045.729a3.23 3.23 0 0 0-.959.882 3.22 3.22 0 0 0-.53 1.189v-.03zm-2.901 10.927l-5.376-9.683 2.357-1.312 5.376 9.684-2.357 1.311zm-15.889-4.881l2.475-1.065 6.845 4.497-2.693-6.281 2.476-1.056 4.369 10.177-2.475 1.065-6.855-4.526 2.703 6.301-2.476 1.065-4.369-10.177zm-6.668 9.762a2.08 2.08 0 0 0 1.046.602 2.9 2.9 0 0 0 1.351-.059 2.7 2.7 0 0 0 1.058-.48c.313-.235.572-.536.757-.881a3.79 3.79 0 0 0-1.243-4.526 2.96 2.96 0 0 0-1.182-.383 2.97 2.97 0 0 0-1.234.136 2.74 2.74 0 0 0-1.499.917 2.96 2.96 0 0 0-.602 1.657l3.314-.868.503 1.923-5.671 1.489-.641-2.426a5.23 5.23 0 0 1 .503-2.07c.332-.701.81-1.322 1.4-1.825a5.66 5.66 0 0 1 2.279-1.153c.984-.277 2.024-.294 3.018-.05a5.02 5.02 0 0 1 2.446 1.42 6.28 6.28 0 0 1 1.441 2.642c.26.984.276 2.017.048 3.008a5.17 5.17 0 0 1-1.42 2.446 5.93 5.93 0 0 1-2.634 1.44c-1.143.337-2.364.31-3.491-.079a4.51 4.51 0 0 1-2.427-2.12l2.88-.76zm-21.817-3.292l-3.531-.089v-2.08l6.233.157-.276 11.064-2.693-.059.266-8.993zm-6.893-1.885c.779.601 1.385 1.397 1.756 2.308.377.955.489 1.994.325 3.007a5.5 5.5 0 0 1-3.511 4.477c-.943.357-1.963.462-2.959.306-.992-.141-1.932-.531-2.732-1.134-.779-.592-1.379-1.387-1.736-2.298a5.77 5.77 0 0 1-.316-2.958 5.68 5.68 0 0 1 1.174-2.791 5.44 5.44 0 0 1 2.318-1.706c.943-.357 1.963-.463 2.959-.305.985.13 1.921.507 2.722 1.094zm-5.316 1.874a3.81 3.81 0 0 0-1.126 2.198c-.121.838.039 1.69.456 2.427a2.7 2.7 0 0 0 .855.807 2.69 2.69 0 0 0 1.118.366 2.74 2.74 0 0 0 1.179-.025 2.76 2.76 0 0 0 1.06-.517c.606-.593 1.001-1.369 1.124-2.208s-.033-1.695-.443-2.437a2.77 2.77 0 0 0-.858-.806c-.34-.204-.721-.333-1.115-.377-.388-.069-.786-.054-1.167.045a2.74 2.74 0 0 0-1.042.527h-.04zm-11.275-4.142l3.945 1.193 1.203-1.676 2.703.818-7.042 9.437-2.959-.907-.631-11.755 2.732.819.049 2.071zm.059 2.189l.138 4.279 2.476-3.48-2.614-.799zm-14.537.936c-.572-.762-.914-1.672-.986-2.622a5.71 5.71 0 0 1 .572-2.959 5.8 5.8 0 0 1 1.874-2.317c.782-.56 1.712-.879 2.673-.917 1.057-.027 2.106.2 3.057.661l3.758 1.755-4.675 10.038-3.758-1.755a6.42 6.42 0 0 1-2.515-1.884zm3.817-6.182c-.402.161-.767.402-1.072.709s-.544.673-.703 1.076a2.95 2.95 0 0 0-.4 1.234c-.04.436.017.875.166 1.286a2.95 2.95 0 0 0 .701 1.092 2.96 2.96 0 0 0 1.101.687l1.164.542 2.722-5.837-1.164-.543a3.3 3.3 0 0 0-1.233-.375 3.29 3.29 0 0 0-1.282.129zm-10.898 3.008l5.642-9.526 2.328 1.38-5.671 9.526-2.298-1.38zm-3.837-16.171l2.17 1.598-.424 8.184 4.054-5.502 2.18 1.607-6.588 8.875-2.17-1.597.454-8.205-4.083 5.522-2.17-1.607 6.579-8.875zm-11.747-.849a2.03 2.03 0 0 0 0 1.213c.15.43.401.818.73 1.134a2.73 2.73 0 0 0 .956.663c.363.15.753.22 1.145.204a3.8 3.8 0 0 0 2.217-1.111c.594-.608.966-1.397 1.058-2.241a3.02 3.02 0 0 0-.986-2.219 2.83 2.83 0 0 0-1.548-.828c-.598-.071-1.204.042-1.736.325l2.436 2.416-1.401 1.41-4.172-4.132 1.765-1.784c.635-.342 1.333-.55 2.052-.612a5.24 5.24 0 0 1 2.278.286c.812.287 1.547.756 2.15 1.371a5.81 5.81 0 0 1 1.568 2.574 5.12 5.12 0 0 1 0 2.83c-.286.976-.82 1.863-1.549 2.573a5.81 5.81 0 0 1-2.574 1.568c-.922.266-1.899.266-2.821 0a5.84 5.84 0 0 1-2.584-1.548 5.6 5.6 0 0 1-1.696-3.047 4.52 4.52 0 0 1 .592-3.165l2.121 2.12zm-8.256-20.412l-1.706-3.086 1.815-.987 3.028 5.453-9.685 5.375-1.312-2.357 7.861-4.398zm-1.874-6.903c-.113.976-.496 1.901-1.105 2.672a5.72 5.72 0 0 1-2.446 1.825c-.934.391-1.956.523-2.959.384a5.56 5.56 0 0 1-2.653-1.163 6.01 6.01 0 0 1-1.745-2.386c-.374-.928-.51-1.935-.395-2.929a5.28 5.28 0 0 1 1.105-2.653 6.03 6.03 0 0 1 2.429-1.795c.949-.383 1.98-.519 2.995-.394.967.14 1.879.535 2.643 1.144a5.96 5.96 0 0 1 1.748 2.379 5.97 5.97 0 0 1 .393 2.926l-.01-.01zm-4.29-3.639a3.85 3.85 0 0 0-2.466.138 3.84 3.84 0 0 0-1.874 1.608 3.04 3.04 0 0 0-.012 2.296c.296.737.871 1.329 1.599 1.648a3.35 3.35 0 0 0 2.476-.138c.81-.278 1.481-.857 1.874-1.617a2.73 2.73 0 0 0 0-2.307 2.69 2.69 0 0 0-.618-.991c-.276-.281-.61-.499-.98-.637zm-2.121-11.821l.986 4.023 2.052.187.661 2.752-11.688-1.312-.73-3.037 9.863-6.489.671 2.781-1.815 1.095zm-1.864 1.163l-3.62 2.288 4.261.365-.641-2.653zM.948 96.026a4.93 4.93 0 0 1 1.746-2.199 6.2 6.2 0 0 1 2.813-.985 6.18 6.18 0 0 1 2.947.443 4.93 4.93 0 0 1 2.14 1.844 6.46 6.46 0 0 1 .986 2.958l.395 4.132-11.096 1.016-.385-4.132a6.41 6.41 0 0 1 .454-3.076zm7.259.178a3.21 3.21 0 0 0-1.154-.565 3.19 3.19 0 0 0-1.283-.066 2.96 2.96 0 0 0-2.324 1.058 2.95 2.95 0 0 0-.635 2.472l.118 1.272 6.411-.611-.118-1.272c-.018-.433-.121-.858-.304-1.25s-.441-.745-.761-1.037h.049zM.059 88.176l11.076.178v2.702L.059 90.878v-2.702zm11.994-11.36l-.286 2.682-7.259 3.777 6.796.71-.276 2.682-11.066-1.183.286-2.682 7.289-3.777-6.825-.71.276-2.692 11.066 1.193zM6.797 66.274c-.384.103-.728.32-.986.621a2.78 2.78 0 0 0-.612 1.203 2.71 2.71 0 0 0 .316 2.248c.479.686 1.203 1.162 2.022 1.331.837.262 1.742.187 2.525-.207a3.04 3.04 0 0 0 .905-.841c.241-.339.409-.724.495-1.131a2.71 2.71 0 0 0-.079-1.755 2.85 2.85 0 0 0-1.154-1.331l-.848 3.323-1.973-.493 1.45-5.69 2.436.621c.612.373 1.142.866 1.558 1.45a5.42 5.42 0 0 1 .917 2.11 5.75 5.75 0 0 1-.099 2.544 6.03 6.03 0 0 1-1.42 2.662 5.09 5.09 0 0 1-2.436 1.44 5.84 5.84 0 0 1-2.959 0 5.99 5.99 0 0 1-2.663-1.42 5.19 5.19 0 0 1-1.45-2.436c-.256-.986-.256-2.021 0-3.008a5.64 5.64 0 0 1 1.766-3.008 4.53 4.53 0 0 1 3.028-1.085l-.74 2.85zm13.471-17.462l1.805-3.037 1.785 1.055-3.176 5.364-9.528-5.65 1.381-2.317 7.733 4.585zm5.011-5.089a5.39 5.39 0 0 1-2.87.404 5.73 5.73 0 0 1-2.791-1.183 5.66 5.66 0 0 1-1.844-2.386 5.51 5.51 0 0 1-.335-2.87c.15-.99.555-1.924 1.174-2.712a5.71 5.71 0 0 1 2.328-1.824c.896-.39 1.882-.526 2.85-.394a5.82 5.82 0 0 1 2.771 1.193 5.69 5.69 0 0 1 1.854 2.386 5.37 5.37 0 0 1 .355 2.86c-.162.984-.565 1.913-1.175 2.703a6.03 6.03 0 0 1-2.317 1.823zm.986-5.542a3.33 3.33 0 0 0-1.361-2.061c-.655-.551-1.492-.836-2.347-.799a3.05 3.05 0 0 0-1.989 1.156c-.487.63-.707 1.426-.614 2.217a3.36 3.36 0 0 0 1.371 2.061c.65.559 1.491.845 2.347.799a2.96 2.96 0 0 0 2.594-3.372zm9.114-7.82l-2.959 2.86.888 1.874-2.042 1.972-4.823-10.748 2.249-2.169 10.583 5.197-2.061 1.972-1.834-.956zm-1.973-.986L29.6 27.403l1.923 3.846 1.884-1.873zm6.302-13.184a4.93 4.93 0 0 1 2.781.385 5.8 5.8 0 0 1 2.278 1.972 5.71 5.71 0 0 1 1.115 2.751 4.93 4.93 0 0 1-.503 2.781 6.43 6.43 0 0 1-2.061 2.357l-3.363 2.426-6.5-8.973 3.363-2.426a6.42 6.42 0 0 1 2.89-1.272zm3.541 6.341c.054-.429.02-.865-.101-1.28s-.325-.802-.6-1.136a2.96 2.96 0 0 0-4.517-.729l-.986.749 3.778 5.216.986-.749c.735-.473 1.253-1.217 1.44-2.071zm2.663-11.005l5.583 9.565-2.338 1.361-5.573-9.565 2.328-1.361zm16.008 4.557l-2.456 1.114-6.904-4.349 2.831 6.222-2.456 1.114-4.645-10.088 2.456-1.114 6.904 4.378-2.84-6.242 2.456-1.114 4.655 10.078zm6.46-9.862a2.1 2.1 0 0 0-1.055-.572 2.79 2.79 0 0 0-1.351.089 2.68 2.68 0 0 0-1.043.503 2.66 2.66 0 0 0-.732.897 3.22 3.22 0 0 0-.128 2.416c.19.855.711 1.6 1.45 2.071a3.05 3.05 0 0 0 2.437.197 2.81 2.81 0 0 0 1.47-.986 2.76 2.76 0 0 0 .562-1.676l-3.284.986-.552-1.913 5.642-1.617.691 2.416c-.007.717-.162 1.425-.454 2.081a5.38 5.38 0 0 1-1.371 1.854 5.73 5.73 0 0 1-2.249 1.203 6.03 6.03 0 0 1-3.008.118 5.09 5.09 0 0 1-2.476-1.371c-.715-.724-1.232-1.621-1.499-2.603a6.06 6.06 0 0 1-.118-3.017 5.13 5.13 0 0 1 1.371-2.475 5.92 5.92 0 0 1 2.604-1.489 5.69 5.69 0 0 1 3.492 0 4.57 4.57 0 0 1 2.476 2.061l-2.87.828z" fill="#00f"/></g><g class="rotate-left"><path d="M72 58v6.667h3.364V78h3.364v3.333h3.364v3.333h3.364v6.667h-3.364v3.333h-3.364V98h-3.364v13.333H72V118h37v-6.667h-3.364V98h-3.363v-3.333h-3.364v-3.333h-3.364v-6.667h3.364v-3.333h3.364V78h3.363V64.667H109V58H72z" fill="#fff"/><g fill="#0023ff"><use xlink:href="#B"/><path d="M88.818 88h-3.364v3.333h3.364V88z"/><use xlink:href="#B" x="-3.363" y="6.668"/><use xlink:href="#B" x="-6.727" y="10"/><use xlink:href="#B" x="-3.363" y="-3.332"/><path d="M82.091 78h-3.364v3.333h3.364V78z"/><path d="M78.727 64.666h-3.364v13.333h3.364V64.666z"/><path d="M72 58v3.333 3.333h37v-3.333V58H72z"/><use xlink:href="#B" x="6.727"/><path d="M95.545 88h-3.364v3.333h3.364V88z"/><use xlink:href="#B" x="10.092" y="6.668"/><use xlink:href="#B" x="13.455" y="10"/><use xlink:href="#B" x="10.092" y="-3.332"/><path d="M92.182 78h-3.364v3.333h3.364V78z"/><use xlink:href="#B" y="-10"/><use xlink:href="#B" x="6.727" y="-10"/><path d="M102.273 78h-3.364v3.333h3.364V78z"/><path d="M105.636 64.666h-3.364v13.333h3.364V64.666zM78.727 98h-3.364v13.333h3.364V98z"/><path d="M72 111.334v3.333 3.334h37v-3.334-3.333H72zm23.545-6.667v-3.334h-3.364V98h-3.364v3.333h-3.364v3.334h-3.364V108h16.818v-3.333h-3.364z"/><path d="M105.636 98h-3.364v13.333h3.364V98z"/></g><defs ><path id="B" d="M88.818 84.666h-3.364v3.333h3.364v-3.333z"/></defs></g></svg>