<svg width="20" height="20" viewBox="0 0 20 20" fill="none" xmlns="http://www.w3.org/2000/svg">
<path d="M10 0C4.48 0 0 4.48 0 10C0 15.52 4.48 20 10 20C15.52 20 20 15.52 20 10C20 4.48 15.52 0 10 0ZM7.09333 15.12H4.66V7.79333H7.09333V15.12ZM5.87333 6.78667H5.86C5.04 6.78667 4.51333 6.22667 4.51333 5.52C4.51333 4.8 5.06 4.25333 5.89333 4.25333C6.72667 4.25333 7.24 4.8 7.25333 5.52C7.25333 6.22667 6.72667 6.78667 5.87333 6.78667ZM15.8733 15.12H13.44V11.2C13.44 10.2133 13.0867 9.54 12.2067 9.54C11.5333 9.54 11.1333 9.99333 10.96 10.4333C10.8933 10.5867 10.88 10.8067 10.88 11.0267V15.12H8.44667C8.44667 15.12 8.48 8.48 8.44667 7.79333H10.88V8.83333C11.2067 8.33333 11.78 7.62667 13.0733 7.62667C14.6733 7.62667 15.88 8.67333 15.88 10.9267V15.12H15.8733Z" fill="black"/>
</svg>
