<svg width="115" height="36" viewBox="0 0 115 36" fill="none" xmlns="http://www.w3.org/2000/svg">
    <path d="M54.0872 9.72257C53.8981 9.02909 53.1015 9.08104 52.5329 9.15636C51.489 9.48232 49.1964 9.16415 49.3363 10.7433C49.8829 15.3158 49.7702 19.9364 49.9956 24.5257C47.2484 24.1998 47.0658 15.5911 46.6604 13.2367C46.5645 12.2588 46.2653 10.2615 44.8937 10.9952C44.2072 11.1693 43.5259 11.2809 42.9081 11.5744C42.4133 11.7134 41.7683 11.8913 41.7308 12.4354C41.4367 16.83 41.6984 21.3701 43.162 25.5517C43.8433 26.6802 44.2357 28.1321 45.3638 28.8944C46.8676 29.8125 48.4102 30.4358 50.1342 30.7125C52.7725 31.567 54.8811 28.8346 55.2865 26.4789C55.859 24.6439 55.2257 22.6765 55.2153 20.7922C55.0184 17.0884 55.1026 13.312 54.0872 9.72257ZM41.3733 24.5205C41.4536 20.4948 41.4393 13.8561 36.2209 13.3523C33.1564 13.4886 30.4675 15.7119 29.2267 18.3949C27.6633 22.0687 29.5777 25.9088 29.9624 29.6138C30.0919 31.8215 34.2366 32.8098 36.0499 32.5318C40.556 32.6422 41.6815 28.2321 41.3888 24.5167L41.3733 24.5205ZM35.2974 26.5127C34.563 26.0036 34.5203 24.6634 34.2508 23.8219C33.6149 21.8181 33.7263 19.7766 35.5344 18.4442C36.0629 19.4559 36.1704 26.1464 35.2922 26.5153L35.2974 26.5127ZM8.77383 7.4032C8.49925 6.16949 8.87357 4.30595 7.78817 3.54624C7.00647 3.80708 6.21082 4.02386 5.40496 4.19556C3.78464 4.71502 5.0423 7.5902 4.83507 8.88365C3.26655 9.51868 0.733096 9.60439 0 11.3017C0.281063 12.1913 0.462394 13.1081 0.647611 14.0185C1.88973 13.686 3.13055 13.5419 4.3649 13.1834C3.57481 14.6197 2.36248 15.8288 2.14877 17.5261C2.06199 17.7923 2.04774 17.8001 2.28865 17.9157C3.12666 18.191 3.98281 18.9364 4.83507 18.9377C6.44244 18.0845 6.75199 15.9833 7.75837 14.5652C9.06914 15.7015 10.3242 17.5936 12.2917 17.3702C16.1216 15.6158 12.1621 12.9367 10.5858 11.1939C11.8811 10.4147 14.693 10.4862 14.4262 8.44471C13.8628 5.00591 10.9265 6.37728 8.77383 7.4032ZM26.6259 22.0453C24.9939 20.5039 23.0938 22.5323 21.3608 22.7765C20.8621 20.3506 21.4502 20.9077 23.2622 19.8208C24.4836 19.2312 25.4757 18.2871 26.6142 17.5754C27.5209 17.0962 28.6192 16.6768 29.2694 15.8872C29.7629 14.5301 29.0635 11.5472 27.4626 11.1926C26.622 10.9926 26.7593 10.9251 25.9575 11.3225C25.0454 11.6456 24.1659 12.0548 23.3308 12.5445C21.037 14.1717 18.3468 15.0366 15.9584 16.4547C15.2163 16.8092 15.7201 18.8143 15.8004 19.1819C15.8587 20.0091 15.8678 20.8272 16.0595 21.6415C16.505 25.9361 16.3302 31.0137 18.1888 35.0395C18.2769 35.5382 18.9426 35.233 19.2949 35.4148C21.0603 36.1135 23.757 36.7407 22.9721 33.8188C22.5835 32.0799 22.3931 30.3307 22.1392 28.5606C23.6417 27.7814 25.0561 26.8659 26.5987 26.1763C27.2463 25.9426 27.8421 25.527 27.9962 24.814C28.298 23.657 27.3732 22.7752 26.6259 22.0453ZM72.1905 5.60718C72.1244 4.78255 69.8293 5.29811 69.2853 5.21759C67.7505 5.16694 67.731 5.67211 67.6779 7.03568C67.6443 9.57972 67.6468 12.0874 67.6391 14.6366C66.0602 12.8861 62.3416 5.83445 59.6527 7.67591C58.6412 8.14472 57.1063 7.93564 56.8356 9.35116C56.3694 12.4354 56.7696 15.5651 56.8563 18.665C56.9185 21.0766 56.4807 23.5258 57.2164 25.8919C57.877 27.9632 61.5632 28.1619 62.1758 26.0049C62.6849 23.018 62.2833 19.9493 62.3649 16.9404C63.5889 18.3234 64.6031 19.8961 65.7053 21.3817C66.8438 23.0609 68.4525 26.7062 70.982 25.4257C71.6944 25.166 72.7604 24.992 72.8614 24.1037C73.509 21.3882 73.0259 18.626 72.7915 15.8846C72.3744 12.4796 72.9029 8.98105 72.1905 5.60718ZM114.117 5.13318C114.367 4.48386 115.332 2.26709 114.882 1.78269C113.881 1.08922 112.639 0.654177 111.652 0.133423C110.53 -0.966524 107.852 5.06825 106.957 6.01366C105.615 4.96176 104.774 0.548986 103.497 0.395747C98.6221 1.771 99.1091 2.4437 101.057 6.64609C101.863 8.02135 102.819 9.31219 103.648 10.6719C104.759 12.8211 103.166 20.9584 106.812 20.6376C111.946 19.8584 109.479 15.134 110.117 11.8277C111.635 9.73426 112.851 7.39541 114.117 5.13318ZM101.918 18.091C101.994 16.8716 101.516 15.8963 100.795 14.9353C100.526 14.1211 99.1453 13.8808 99.2088 13.0302C99.9251 11.2952 100.026 9.35635 99.7904 7.50839C99.258 4.60334 97.3981 0.989225 93.9722 1.31388C92.0696 1.24116 89.5853 1.78269 88.1075 3.1138C87.9201 3.28713 87.7773 3.50328 87.6911 3.74386C87.605 3.98443 87.5781 4.24231 87.6127 4.49555C88.1437 8.86547 86.706 19.7909 89.4921 21.9259C90.628 22.5752 92.247 22.3323 93.2068 21.4765C94.1419 20.2402 93.4943 18.5364 93.4451 17.2339C94.3582 17.1495 95.8244 17.0404 95.8594 18.2962C95.7596 19.6091 95.8956 20.996 95.9746 22.322C98.2154 24.4361 99.0715 24.3439 101.674 22.7726C102.488 21.4402 101.896 19.6013 101.918 18.091ZM92.9956 11.7744C92.962 10.0498 92.6783 8.43951 92.7495 6.73051C94.6496 6.6422 93.9671 10.9589 92.9956 11.7744ZM79.0811 4.30595C77.2678 4.12933 74.2499 4.31763 74.7835 6.8266C74.1838 7.05127 74.2512 7.57072 74.3108 8.09667C74.3108 9.68231 74.3872 11.1822 74.3678 12.4913C74.7162 15.4054 73.5699 20.8026 75.8586 22.7856C78.2068 24.2037 79.2987 25.0179 81.8101 23.8245C84.271 22.9531 86.3602 21.2363 86.6801 18.5105C87.3277 15.0548 87.2733 11.1355 85.5973 7.9785C84.2257 5.75263 81.6275 4.53321 79.0811 4.30595ZM79.8414 17.9949C79.6302 15.3703 79.6147 12.7289 79.6238 10.0914C81.3076 10.9277 80.8672 13.1704 81.1236 14.7262C81.1884 15.9495 81.0925 17.378 79.8414 17.9949Z" fill="black"/>
</svg>
