<svg width="800" height="800" viewBox="0 0 24 24" fill="none" xmlns="http://www.w3.org/2000/svg"><path d="M13 3.7c0-.4-.1-1.2-.8-1.6-.8-.3-1.5 0-1.8.4l-5.5 5H3a2 2 0 0 0-2 2v5.1c0 1.1.9 2 2 2h2l5.4 4.9c.3.3 1 .7 1.8.4.7-.4.8-1.2.8-1.6V3.7ZM17.3 3.8h-.2a1 1 0 0 0-1.2.6l-.2.5c-.1.5.2 1 .7 1.2l.3.1c2.3.6 4 3 4 5.8 0 2.9-1.7 5.2-4 5.8h-.3a1 1 0 0 0-.7 1.3l.2.5c.1.5.7.8 1.2.7l.2-.1c3.5-1 6-4.3 6-8.2 0-3.9-2.5-7.2-6-8.2Z" fill="#000"/><path d="M16.4 7.8H16a1 1 0 0 0-1.2.6l-.2.5c-.1.5.2 1 .7 1.2l.2.1c.6.2 1.2.8 1.2 1.8s-.6 1.6-1.2 1.8h-.2a1 1 0 0 0-.7 1.3l.2.5c.1.5.7.8 1.2.7l.3-.1c1.7-.5 2.9-2.3 2.9-4.2 0-1.9-1.2-3.7-3-4.2Z" fill="#000"/></svg>