<svg width="154" height="154" viewBox="0 0 154 154" fill="none" xmlns="http://www.w3.org/2000/svg">
<path d="M77 153.5C34.7491 153.5 0.5 119.251 0.5 77C0.5 34.7491 34.7491 0.5 77 0.5C119.251 0.5 153.5 34.7491 153.5 77C153.5 119.251 119.251 153.5 77 153.5ZM77 138.2C93.2312 138.2 108.798 131.752 120.275 120.275C131.752 108.798 138.2 93.2312 138.2 77C138.2 60.7687 131.752 45.2023 120.275 33.7251C108.798 22.2478 93.2312 15.8 77 15.8C60.7687 15.8 45.2023 22.2478 33.7251 33.7251C22.2478 45.2023 15.8 60.7687 15.8 77C15.8 93.2312 22.2478 108.798 33.7251 120.275C45.2023 131.752 60.7687 138.2 77 138.2Z" fill="white" fill-opacity="0.7"/>
<path d="M91.5049 73.3794C94.3954 75.3661 94.3954 79.6339 91.5049 81.6206L73.8321 93.7674C70.5146 96.0477 66 93.6725 66 89.6469V65.3531C66 61.3275 70.5146 58.9523 73.8321 61.2326L91.5049 73.3794Z" fill="white" fill-opacity="0.7"/>
</svg>
