<svg width="22" height="24" viewBox="0 0 22 24" fill="none" xmlns="http://www.w3.org/2000/svg">
<path d="M16.4789 9.95805L21.1294 0L11.9759 5.71723L10.3251 3.76116C10.3251 3.76116 0.202708 12.26 0 24H12.6535L9.78394 14.1448L19.4551 18.3214C19.4551 18.3214 21.6191 18.489 21.9347 15.3234C21.9347 15.3234 23.0052 14.1014 16.4789 9.95864V9.95805ZM12.4681 11.8446C11.542 11.8446 10.7913 11.1248 10.7913 10.2368C10.7913 9.34882 11.542 8.62904 12.4681 8.62904C13.3943 8.62904 14.145 9.34882 14.145 10.2368C14.145 11.1248 13.3943 11.8446 12.4681 11.8446Z" fill="#380DE8"/>
</svg>
