<svg width="189" height="41" viewBox="0 0 189 41" fill="none" xmlns="http://www.w3.org/2000/svg">
<g clip-path="url(#clip0_2888_51830)">
<path d="M25.8398 0C26.3419 0.554054 27.6855 1.68063 27.6929 2.50432L27.7594 10.3571C27.7741 12.2631 26.1979 13.6334 24.4002 13.6371H20.646C16.8365 13.6408 13.9018 16.5662 13.7283 20.1454C13.5548 23.7246 16.1536 26.9455 19.9299 27.3259C24.2193 27.7581 27.752 24.6369 27.7594 20.3227L27.7668 16.2596C27.7668 14.6123 29.0772 13.6334 30.6387 13.6371L38.793 13.6556C40.2105 13.6556 41.436 14.7711 41.436 16.2264V24.7736C41.436 26.2215 40.1994 27.3444 38.793 27.3407L34.3338 27.3296C30.1809 27.3186 27.4345 30.6207 27.7446 34.7392C27.8554 36.2167 27.7446 37.8456 27.4751 39.2972L25.8731 41H17.3607C8.21707 39.1051 1.70174 32.438 0 23.2703V17.7297C1.6759 8.54721 8.23553 1.89486 17.3496 0H25.8398Z" fill="#491B11"/>
<path d="M189 10.4238V32.0689L185.715 32.0541L185.423 30.0041C183.847 31.8916 181.588 32.7522 179.207 32.2129C174.128 31.0605 173.39 24.9179 174.903 21.0247C175.726 18.9045 177.638 17.4936 179.351 17.1353C181.858 16.6108 183.751 17.2054 185.519 19.1557L185.63 10.4792L188.997 10.4275L189 10.4238ZM185.232 21.8632C184.645 20.334 183.153 19.6544 181.776 19.6396C180.503 19.6285 179.037 20.2232 178.414 21.5308C177.465 23.5254 177.446 26.0112 178.469 27.9319C179.307 29.5054 181.097 29.8785 182.784 29.4833C185.9 28.7556 186.184 24.3454 185.228 21.8595L185.232 21.8632Z" fill="#491B11"/>
<path d="M64.7696 29.4386C67.9442 29.5088 70.3731 27.5068 70.2181 24.3487L65.2753 24.2823L65.3011 21.4935H73.9021C74.1864 23.8833 73.9649 26.3507 72.7689 28.4155C71.1077 31.2818 68.066 32.2606 64.9763 32.3825C59.0442 32.6152 54.7991 28.4303 54.6994 22.4945C54.6441 19.1369 55.6481 16.0121 58.0918 13.9067C60.5355 11.8013 63.8947 11.0921 67.2096 11.7606C70.5245 12.4292 73.2045 14.5198 73.4665 18.2837L69.7678 18.3206C69.3654 15.9973 67.8445 14.7451 65.6334 14.5198C62.7282 14.2243 60.0704 15.6353 59.1402 18.5349C58.4425 20.7068 58.461 23.2443 59.107 25.4125C59.8822 28.0092 62.0379 29.3759 64.7733 29.4386H64.7696Z" fill="#491B11"/>
<path d="M111.695 32.0714L106.682 24.322C106.353 23.816 104.74 23.8308 104.076 24.0856L103.969 32.0899L100.285 32.0788L100.273 11.9297C104.762 12.0627 113.795 10.4079 114.552 16.7906C114.921 19.9044 113.67 22.4419 110.155 23.3691L115.663 31.9827L111.691 32.0714H111.695ZM109.513 20.6505C111.473 19.668 111.396 16.159 109.554 15.3205C107.833 14.5337 105.755 14.7221 104.017 14.9031L104.042 21.1898C105.766 21.2304 107.782 21.5222 109.513 20.6505Z" fill="#491B11"/>
<path d="M153.791 24.0455L159.875 32.0238L156.065 32.1457L150.576 24.9652L150.432 32.0497L147.066 32.0755L147.051 10.5081L150.458 10.4785L150.532 23.7721L155.622 17.4337C156.623 17.2601 157.844 17.2749 159.332 17.4485L153.795 24.0491L153.791 24.0455Z" fill="#491B11"/>
<path d="M125.101 30.6841C122.909 32.7045 119.597 33.0296 117.194 31.1827C115.888 30.178 115.655 28.2758 116.076 26.6173C116.94 23.208 122.432 23.4038 125.009 23.0898C125.873 22.1036 124.865 19.7249 123.532 19.5993C121.857 19.4405 120.203 19.5698 119.789 21.7823L116.574 21.8303C116.596 17.2427 121.934 16.3415 125.467 17.324C127.32 17.8374 128.678 19.5993 128.689 21.5496L128.752 31.9362L125.622 32.0914L125.101 30.6804V30.6841ZM124.946 25.657C123.625 25.1879 121.772 25.4834 120.697 25.8564C119.52 26.2664 119.095 27.5149 119.372 28.5787C119.83 30.3553 123.126 30.2815 124.647 28.7855C125.227 28.2167 125.673 25.9598 124.946 25.6533V25.657Z" fill="#491B11"/>
<path d="M86.0386 27.6185L89.1799 27.6555C88.796 30.688 86.3228 32.0177 83.5616 32.3169C81.2803 32.5644 79.0175 32.0103 77.3601 30.6215C75.566 29.1182 74.8942 26.8539 74.9311 24.3718C74.9902 20.3124 77.8289 17.1063 81.9559 16.9548C84.1966 16.8736 86.3782 17.6788 87.6923 19.2264C89.1061 20.896 89.4494 23.1491 89.2612 25.3986L78.5782 25.4392C78.39 27.4892 79.5122 29.2031 81.2656 29.6427C83.1371 30.1118 85.1895 29.831 86.0386 27.6185ZM85.8134 23.1196C85.9684 20.8036 84.3848 19.4665 82.4837 19.4481C80.4793 19.4296 78.796 20.6707 78.5893 23.1122L85.8171 23.1196H85.8134Z" fill="#491B11"/>
<path d="M170.247 27.64L173.414 27.6548C173.016 30.7353 170.513 32.0355 167.73 32.3236C165.478 32.5563 163.208 31.9875 161.591 30.6135C159.815 29.1101 159.14 26.8348 159.173 24.397C159.228 20.3635 162.008 17.1426 166.117 16.9616C168.361 16.8618 170.565 17.6486 171.894 19.1852C173.33 20.8473 173.721 23.0894 173.481 25.398L162.783 25.4423C162.658 27.5329 163.776 29.2062 165.456 29.6309C167.383 30.1185 169.424 29.8341 170.251 27.64H170.247ZM170.004 23.1226C170.251 20.8806 168.686 19.4548 166.67 19.4511C164.655 19.4474 163.027 20.6516 162.831 23.1079L170 23.1226H170.004Z" fill="#491B11"/>
<path d="M134.674 23.0673L134.63 32.0504L131.263 32.1058L131.227 17.4603L134.512 17.2423L134.833 19.0855C136.114 17.7521 137.591 16.9431 139.569 16.9395C142.079 16.9395 144.405 18.7604 144.423 21.4421L144.497 32.0836L141.12 32.0393L141.068 22.5317C141.057 20.7735 139.746 19.7504 138.048 19.8168C136.35 19.8833 134.685 21.0136 134.678 23.0673H134.674Z" fill="#491B11"/>
<path d="M94.939 27.2154C94.939 27.9135 95.1125 28.8923 95.4632 29.1767C95.8139 29.4611 96.8881 29.5018 97.6375 29.4833C98.2798 29.4685 98.4828 30.8721 98.2945 31.5739C98.1469 32.1206 97.0542 32.3237 96.2975 32.3718C93.7504 32.5306 91.5725 31.1122 91.554 28.4195L91.495 20.0053C90.8231 19.8797 89.9483 19.9314 89.7046 19.6137C89.461 19.2961 89.4758 18.236 89.5496 17.8371C89.6382 17.3643 90.6644 17.2498 91.4138 17.1685L91.5725 14.0436L94.8837 14.0215L95.024 17.2165L98.0509 17.3089L98.2023 19.7726L94.9686 19.9314L94.9354 27.208L94.939 27.2154Z" fill="#491B11"/>
</g>
<defs>
<clipPath id="clip0_2888_51830">
<rect width="189" height="41" fill="white"/>
</clipPath>
</defs>
</svg>
