<svg width="117" height="50" viewBox="0 0 117 50" fill="none" xmlns="http://www.w3.org/2000/svg">
<g clip-path="url(#clip0_2756_50955)">
<path d="M42.1187 24.104L29.8506 50.0276L18.6426 50.0049L42.1208 -0.125L65.5393 50.0008L54.2407 50.0131L42.1187 24.104Z" fill="#491B11"/>
<path d="M93.5776 24.0978L81.3116 50.0296L70.1035 50.0049L93.5817 -0.125L117 50.0008L105.702 50.0131L93.5776 24.0978Z" fill="#491B11"/>
<path d="M10.1624 49.9691L0 49.9876V0H10.1603L10.1624 49.9691Z" fill="#491B11"/>
<path d="M40.7845 42.3497C43.0343 41.5993 45.2389 42.795 45.8873 44.9451C46.4719 46.883 45.4262 49.0991 43.3842 49.8C41.3423 50.5009 39.1357 49.464 38.3885 47.4087C37.6948 45.4997 38.6067 43.0774 40.7845 42.3518V42.3497Z" fill="#491B11"/>
</g>
<defs>
<clipPath id="clip0_2756_50955">
<rect width="117" height="50" fill="white"/>
</clipPath>
</defs>
</svg>
