<svg width="186" height="47" viewBox="0 0 186 47" fill="none" xmlns="http://www.w3.org/2000/svg">
<g clip-path="url(#clip0_2756_50940)">
<path d="M80.527 34.9021L77.1369 34.8119L62.5291 18.8246L62.4838 34.9L58.3575 34.8754L58.3555 11.5395L61.7703 11.6543L76.3307 27.7768L76.409 11.5312H80.5291L80.527 34.9021Z" fill="#491B11"/>
<path d="M41.8947 46.471L40.278 44.6666L31.5904 35.0357L9.1529 9.63088L3.13161 3.1064C2.20574 2.10374 1.35204 1.24871 0.677734 0.0328069L5.75665 0L8.18784 2.62045L45.491 44.5661C46.091 45.2407 46.5921 45.6016 47.0623 46.4341C45.26 46.6268 43.6062 46.633 41.8947 46.471Z" fill="#491B11"/>
<path d="M135.06 17.484L138.718 17.4737L132.432 34.8614L128.401 34.9024L124.256 23.4015C124.011 23.4835 123.644 23.828 123.545 24.0925L119.526 34.8983L115.377 34.8942L109.203 17.4758L112.938 17.4102L117.068 28.8331C117.198 29.1899 117.511 29.559 117.812 29.7353L122.281 17.4614L125.857 17.4266L130.474 29.9321L135.06 17.484Z" fill="#491B11"/>
<path d="M185.508 34.875L180.138 34.9262L172.477 27.2904L172.418 34.8934L168.12 34.8729L168.102 12.5581C168.102 12.3202 168.163 11.9429 168.234 11.7953C168.32 11.6108 168.829 11.498 169.048 11.5L172.415 11.5492L172.473 24.8586L179.66 17.4381L184.761 17.4873L177.251 25.81L185.508 34.875Z" fill="#491B11"/>
<path d="M87.3519 30.1916C89.9707 32.3445 93.6639 32.0575 96.0828 29.7241L98.3222 32.3568C94.7548 36.3367 87.1436 36.2055 83.5783 31.7663C81.708 29.437 81.2626 26.5254 81.9657 23.7204C82.9081 19.962 85.9909 17.4502 89.8986 17.2041C92.8041 17.0216 95.6786 18.0551 97.5716 20.3064C99.2728 22.3323 99.877 25.0101 99.3677 27.6326L86.0961 27.6613C86.1105 28.5635 86.5353 29.5211 87.354 30.1936L87.3519 30.1916ZM95.6456 24.7272C95.093 22.0144 92.9257 20.4356 90.4388 20.5504C88.187 20.655 86.125 22.3917 85.8074 24.76L95.6435 24.7272H95.6456Z" fill="#491B11"/>
<path d="M42.794 29.9126L47.2089 34.8316L42.0537 34.8685L12.1988 1.48334C11.7245 0.954334 11.2709 0.743139 11.0977 0.0275384L16.0487 0.0234375L22.4309 6.89238L42.7919 29.9126H42.794Z" fill="#491B11"/>
<path d="M36.7689 46.3607C35.0615 46.6744 33.3933 46.6334 31.6282 46.453L13.6365 26.2829L0.445312 11.6531C2.22902 11.4788 3.78383 11.5095 5.59021 11.5546L36.7689 46.3607Z" fill="#491B11"/>
<path d="M154.169 31.7376C151.519 35.1761 146.603 35.9164 142.772 34.4216C139.895 33.3 138.015 31.0015 137.495 27.9771C136.893 24.4749 138.056 20.8252 141.112 18.7747C144.655 16.3983 149.509 16.6607 152.812 19.2566C156.664 22.283 156.673 28.4876 154.169 31.7355V31.7376ZM149.21 30.8579C151.027 29.7692 151.823 28.0878 151.79 26.0763C151.755 23.9726 150.639 22.0001 148.847 21.2394C146.923 20.4233 144.682 20.5402 143.178 22.0554C141.135 24.1161 140.955 27.4501 142.685 29.7384C144.242 31.797 147.008 32.1784 149.21 30.8579Z" fill="#491B11"/>
<path d="M108.911 31.6213L110.381 31.1743L111.521 34.0142C109.364 35.4536 106.828 35.5417 104.508 34.5124C102.922 33.8091 101.743 32.3205 101.716 30.4731L101.58 20.8176L98.7857 20.7745L98.7754 17.459L101.588 17.3995L101.644 13.4319L105.659 13.4258L105.702 17.3995L109.038 17.4692L109.016 20.7643L105.789 20.9673L105.727 24.0491C105.69 25.9047 105.527 27.7296 105.747 29.5463C105.931 31.0697 107.405 32.0827 108.913 31.6234H108.911V31.6213Z" fill="#491B11"/>
<path d="M161.042 34.897L156.951 34.8847V17.4683L160.766 17.4355L160.974 19.5598C162.634 17.8681 164.457 17.048 166.956 17.2592L166.987 20.9561C165.356 21.0791 163.892 21.1345 162.667 22.1679C161.677 23.0024 161.061 24.5403 161.059 25.8505L161.044 34.8949H161.042V34.897Z" fill="#491B11"/>
<path d="M16.0843 46.306C14.2924 46.7242 12.5891 46.6586 10.9291 46.4146L0.664062 34.9199L5.80278 34.8789L16.0843 46.3039V46.306Z" fill="#491B11"/>
<path d="M46.9871 11.5066C45.2013 11.5989 43.597 11.5969 41.8339 11.5599L31.7441 0.038569L36.9488 0.0078125L46.9891 11.5087H46.9871V11.5066Z" fill="#491B11"/>
</g>
<defs>
<clipPath id="clip0_2756_50940">
<rect width="186" height="47" fill="white"/>
</clipPath>
</defs>
</svg>
