<svg width="102" height="92" viewBox="0 0 102 92" fill="none" xmlns="http://www.w3.org/2000/svg">
<path d="M54.3501 9.88226C54.0059 10.0736 53.4261 9.96826 53.0712 10.1094C51.7923 10.6177 52.4982 10.7162 51.3705 10.866C51.0835 10.9443 50.6705 11.4159 50.3728 11.5222C49.0145 12.0093 50.271 11.959 48.7071 12.507L48.3377 12.994C47.913 13.1747 47.6599 13.4337 47.3487 13.7536L46.4441 14.6813L45.5269 15.6883L44.8482 16.5668C44.7124 16.7426 44.5418 16.9388 44.4264 17.1041L43.6604 18.2086L43.2522 18.8407C43.1242 19.0388 42.9546 19.292 42.8595 19.4727L42.4814 20.1917L42.0829 20.9512L41.6999 21.7389L41.2937 22.5738C41.1541 22.8608 41.2646 23.2889 40.8583 23.3933L40.7749 24.0872C40.5539 24.3404 40.5064 24.6293 40.3522 24.8864C40.0487 25.3928 39.0413 26.4635 38.51 26.592C37.8109 26.7602 36.2402 26.8153 35.5567 26.5776C34.8731 26.3398 34.1275 25.4623 33.6931 24.8844L33.5205 24.3839C32.9184 23.6301 33.5622 24.2486 33.0299 22.9497L32.612 21.9292C32.3221 21.2218 32.1835 21.1358 31.7995 20.3154C31.6696 20.038 31.563 19.7877 31.4107 19.5403L30.3393 17.7979C30.1047 17.4172 29.8226 17.0751 29.553 16.7233L29.1458 16.1899C28.6397 15.5269 28.1442 14.8746 27.5334 14.3064L25.9248 12.8094C25.0134 11.9619 22.7844 10.4853 21.6092 10.0736C21.2699 9.95474 21.0071 9.89289 20.7211 9.70831C20.3633 9.47734 19.7884 9.37297 19.48 9.09948C18.972 8.65011 18.5279 8.10507 18.2836 7.50978L17.9326 6.65742C17.6252 5.91137 18.5541 3.93028 18.8702 3.73604C19.6041 3.28474 19.0224 3.0673 20.7725 2.66142C21.2864 2.54255 21.8429 2.55511 22.3645 2.51453L22.7029 2.79188C23.1179 2.89045 23.624 2.88948 23.9828 3.07793L24.6111 3.40843C24.8835 3.55146 25.2355 3.63553 25.4914 3.77276C26.0489 4.07041 26.6423 4.34583 27.1649 4.66474C27.6458 4.95852 28.0482 5.20978 28.5708 5.48713C28.8055 5.61179 29.1506 5.99931 29.3891 6.17616L30.509 7.00339C30.8028 7.22083 31.1392 7.50784 31.3875 7.76587L31.9149 8.31188C32.3512 8.76318 32.8661 9.1681 33.2723 9.63969L34.4426 10.9975C34.8605 11.4826 35.2658 11.987 35.6226 12.5108L35.9426 12.9795L37.0062 14.5741L37.6393 13.8077L37.9932 13.1699L38.8048 12.2074L39.1936 11.7136C39.4457 11.3937 39.7103 11.0641 39.9867 10.7655L40.7323 9.9615L41.5118 9.18646L42.1615 8.56894L43.1756 7.65667C43.4384 7.4199 43.7545 7.18121 44.0357 6.97633L45.1041 6.19839C45.6452 5.80507 47.0889 4.87251 47.6716 4.60772L48.4056 4.27432C48.6703 4.15352 48.9572 3.93511 49.1967 3.84427L50.2701 3.43646L51.068 3.08953C51.6207 2.84889 53.1206 2.83826 54.0223 2.22461L61.4619 2.22751C62.1911 2.68558 63.5824 2.84986 64.2223 3.06633L65.3296 3.44129C65.5817 3.52633 65.9472 3.67419 66.1877 3.79789L67.6062 4.52461L68.9646 5.28805C69.9429 5.83793 71.9286 7.30104 72.7537 8.08091L73.7475 9.02121L74.2498 9.4928C74.5736 9.79721 74.8567 10.1065 75.1457 10.437L75.7768 11.1608L76.5603 12.0586L77.0043 12.7302C77.1876 13.0075 77.5153 13.1979 77.6918 13.5101L78.1484 14.3151C78.2066 14.4185 78.4112 14.6147 78.4994 14.7451L78.9105 14.1904C79.0502 14.002 79.2043 13.7623 79.3352 13.5574L79.7531 12.9032C79.9742 12.5572 80.2699 12.2596 80.5133 11.9552L81.2947 10.9772C81.4266 10.8119 81.5788 10.5771 81.733 10.4244L84.5147 7.68276C84.7241 7.47595 85.0199 7.27495 85.2671 7.09037L85.8285 6.67095L86.9493 5.85726C87.216 5.66398 87.5156 5.42528 87.7764 5.27259L88.3872 4.91406C88.6005 4.7894 88.8536 4.64251 89.0621 4.54007L89.8561 4.15062C90.085 4.03852 90.3972 3.85297 90.6105 3.76793L91.6576 3.35335L92.5031 3.02091C93.3369 2.69234 94.3792 2.83537 95.2984 2.91461C96.172 3.47318 96.9254 3.81625 97.32 4.82902L97.6768 5.74419C97.8261 6.12784 97.8116 6.89129 97.6768 7.26915L97.3326 8.2394L96.9845 8.73322C96.4309 9.51696 95.7464 9.81461 94.9261 10.1683L94.036 10.552L93.2923 10.8709C92.9889 11.0013 92.6679 11.1985 92.3693 11.3734C88.8798 13.4096 86.037 16.6904 84.1802 20.2197L83.9281 20.7C83.7051 21.1233 83.5083 21.4934 83.2775 21.9167C82.9934 22.4375 82.3002 24.4186 82.0597 24.8583L81.6157 25.6701C80.9845 26.8259 81.3936 25.7416 80.1371 27.0105C79.1297 27.1545 78.1339 27.1545 77.0994 27.0404L75.9039 26.1262C75.6334 25.9194 75.359 25.5136 75.1747 25.2352C75.0691 25.0748 75.0894 24.7047 74.91 24.4766C74.785 24.3172 74.7607 23.8581 74.7113 23.6581C74.3545 23.4841 74.4388 23.143 74.3041 22.8521L73.8173 21.7997L73.445 21.0073L73.063 20.2448L72.7236 19.6244C72.3649 18.9692 71.9169 18.3797 71.4748 17.7738C71.3779 17.6404 71.247 17.3505 71.1413 17.2229L70.3511 16.2662L69.9603 15.7144C69.7431 15.4081 68.6504 14.2996 68.3033 13.9952C68.0726 13.7932 67.8379 13.5941 67.6614 13.3506C67.5596 13.2105 67.1437 13.0858 67.0564 12.9177C66.8596 12.5369 66.4136 12.4152 66.1353 12.189C65.733 11.8624 65.4712 11.6449 64.9641 11.4749C64.6761 11.3782 64.3465 10.8892 64.0216 10.8448C62.8106 10.6815 63.8558 10.5945 62.3113 10.1123C61.937 9.99532 61.4057 10.0649 61.0848 9.88032C60.1666 9.35364 57.0833 9.10625 56.3833 9.32465L55.5872 9.57205C55.0918 9.55175 54.8067 9.63679 54.3578 9.88612L54.3501 9.88226Z" fill="#491B11"/>
<path d="M56.3288 45.7474C59.3549 45.5841 58.0324 46.0421 59.2162 46.5601L59.9987 46.9022C60.3002 47.0336 61.0138 47.0443 61.3338 46.9186C62.6699 46.3949 63.2836 45.8701 63.2904 44.3104C62.7416 44.1847 62.3586 44.5665 61.9184 44.6699L60.4747 45.0091C60.1383 45.0883 59.7117 45.0158 59.3461 44.9414L57.9587 44.6592C57.7841 44.6235 57.439 44.406 57.2557 44.3123C55.9342 43.632 54.8987 42.5767 54.3887 41.2073C54.0328 40.2515 53.6227 38.6193 53.9688 37.7225L54.2839 36.904C54.3702 36.6807 54.3974 36.4585 54.5011 36.2507C55.0567 35.1423 55.8382 34.1933 56.9784 33.5912C57.183 33.483 57.5291 33.2984 57.7347 33.2346L59.0097 32.8355C59.5885 32.6538 60.5174 32.7099 61.1234 32.8297C61.5219 32.908 61.8787 33.2336 62.3344 33.165L63.0577 33.598C63.3127 33.7507 63.5435 33.9381 63.7878 34.114C64.163 33.9217 64.3472 33.6183 64.4452 33.165L67.1842 33.167L67.1687 44.9028C67.1687 45.2787 67.0863 45.7715 67.0194 46.0866L66.6122 46.9931C66.2001 47.9102 65.3285 48.8195 64.4161 49.3114C63.8295 49.6274 62.8599 49.9164 62.2025 50.071C61.3154 50.2797 60.3584 50.0913 59.4276 50.1512C59.062 50.1744 58.6723 49.9019 58.3426 49.8246C58.013 49.7473 57.7686 49.6922 57.5068 49.5665C55.9167 48.807 55.1866 47.9633 54.5632 46.3968L54.4236 46.045C54.3858 45.9503 54.6766 45.8353 54.7843 45.8295L56.3269 45.7464L56.3288 45.7474ZM61.6886 41.5668C62.4313 41.3668 62.9258 40.6284 63.2351 40.0244C63.5939 39.3248 63.6171 38.8029 63.2768 38.1071C63.1343 37.8162 63.0684 37.3978 62.7814 37.133C61.8729 36.2971 61.3028 36.0545 59.9434 36.2836C59.1406 36.4189 58.5142 37.1021 58.2088 37.7882L57.9335 38.4057C57.8268 38.6454 57.8413 39.2194 57.9402 39.462L58.236 40.1858C58.4628 40.7396 59.0572 41.1851 59.6477 41.4576C60.2382 41.7301 61.0662 41.734 61.6886 41.5668Z" fill="#491B11"/>
<path d="M52.6193 64.0647C52.9577 64.0647 53.4279 65.7704 56.0894 65.177C56.9262 64.9905 58.2487 63.5323 57.5826 62.5417L56.9378 62.8229C56.6324 62.9563 56.1466 63.1882 55.8267 63.2278C54.9027 63.3409 53.9738 63.3583 53.0624 63.2162C52.8646 63.1853 51.6381 62.647 51.2784 62.4422C50.4513 61.9715 49.7843 61.2825 49.2869 60.4688C49.0852 60.1393 48.6052 59.084 48.55 58.8395C48.4007 58.1707 48.3735 56.3008 48.5509 55.6852C49.0542 53.9418 50.2361 52.4304 51.9629 51.7104C52.1772 51.6215 52.5282 51.4476 52.7182 51.4051C54.1105 51.091 55.7152 51.0862 56.9621 51.7462L57.7339 52.155C57.9084 52.2478 58.3253 52.5454 58.4513 52.3115C58.6647 51.9124 58.8508 51.6128 59.3356 51.6128H61.2951C61.4561 51.6148 61.6684 51.8013 61.6675 52.0004L61.6568 62.5098L61.3039 64.1652C60.8976 66.071 59.7166 67.4297 57.8696 68.1323C57.632 68.2231 57.3838 68.341 57.1094 68.3371C56.36 68.3255 55.6153 68.6116 54.8833 68.5468C54.1513 68.4821 53.266 68.3526 52.5253 68.2212C52.2732 68.1767 50.8023 67.4287 50.429 67.0683C49.7096 66.3705 49.4914 66.0014 49.0832 65.1761C48.9194 64.8446 48.7197 64.4281 48.9717 64.0705L52.6183 64.0657L52.6193 64.0647ZM56.199 59.8928L56.9155 59.4241C57.1434 59.2753 57.3005 59.0154 57.4449 58.7747C58.1256 57.6383 57.9152 55.8321 56.4773 55.0155C55.6444 54.5429 54.9754 54.2762 54.1076 54.7043C53.4115 55.0474 53.0469 55.2329 52.6503 55.9558C52.5873 56.0708 52.3682 56.3278 52.3672 56.4515L52.3585 58.0847C52.3585 58.2326 52.5573 58.5128 52.6368 58.6472C53.2379 59.6657 55.1073 60.607 56.2 59.8928H56.199Z" fill="#491B11"/>
<path d="M44.7485 82.5426C45.6618 83.6588 46.9504 84.0618 48.205 83.5341C49.6701 82.9176 49.864 81.2844 49.6032 81.0931C49.5062 81.0215 49.2027 81.0409 49.1068 81.1143C48.7053 81.4168 48.302 81.4207 47.8696 81.5463C47.0086 81.7976 46.2533 81.7724 45.3254 81.5994L44.2152 81.3926L43.4337 80.9761C42.2828 80.3634 41.1736 79.1419 40.8003 77.9726L40.4232 76.7907C40.2108 76.1239 40.2011 75.1217 40.4193 74.4714L40.7945 73.3533C40.8643 73.1436 41.0835 72.7841 41.2018 72.5705C41.7641 71.55 42.7376 70.6889 43.776 70.197L44.351 69.9255C46.6653 69.5573 48.2836 69.4848 50.247 70.917C50.5572 70.8629 50.7715 70.4309 50.9635 70.0849L53.2711 70.0666C53.6502 70.0637 53.5125 71.636 53.5571 72.3627C53.5872 72.8498 53.5513 73.2615 53.5494 73.7485L53.5067 82.3977L53.0394 83.5873C52.5236 84.9006 51.4919 85.8341 50.1898 86.3676C48.2661 87.1562 47.8725 86.8131 45.6628 86.8788C45.3477 86.8885 44.988 86.6855 44.7 86.5957C42.7618 85.9955 41.3918 84.8059 40.8692 82.7485C40.9361 82.6905 41.2483 82.5426 41.4228 82.5426H44.7514H44.7485ZM49.7273 76.5269C49.9648 76.2234 50.0026 75.8166 49.8708 75.4455L49.5082 74.4279C49.2696 73.7582 48.556 73.4731 47.9859 73.1697C47.3237 72.8169 46.6324 72.9483 45.9605 73.2479C45.0966 73.6335 44.8008 74.2404 44.476 74.943C44.1813 75.5789 44.2618 76.151 44.5352 76.7897C44.9608 77.7832 45.1887 77.9156 46.4336 78.4026C47.7319 78.91 49.4868 77.9185 49.7283 76.5259L49.7273 76.5269Z" fill="#491B11"/>
<path d="M13.6266 64.0469C9.67753 64.1349 11.4984 63.9841 9.75219 63.6111C9.67171 63.5937 9.51464 63.4681 9.44774 63.4265C9.36726 63.3772 9.1239 63.6275 9.1239 63.7415L9.11905 67.4409C9.11905 67.8255 8.94162 68.1318 8.53245 68.1328L5.40846 68.1405C5.27369 68.1405 5.03711 67.9936 5.03711 67.8149L5.03905 51.6347L7.65013 51.6134C7.75291 51.6134 7.97882 51.6955 8.05154 51.7584C8.1388 51.8347 8.14074 52.1294 8.19989 52.2338C8.48009 52.7296 9.05409 52.0328 9.82006 51.7555L10.8662 51.3766C11.8465 51.2558 12.8481 51.2868 13.8186 51.3554L14.7513 51.7004C15.9788 52.1546 17.0745 53.1509 17.727 54.2951L18.1633 55.0586L18.2884 55.7747C18.491 56.1052 18.6539 56.425 18.6248 56.8164C18.5705 57.5228 18.7325 58.3104 18.5405 58.9589L18.1362 60.3263C18.0712 60.5476 17.8375 60.912 17.7095 61.1275C17.0163 62.2949 15.7723 63.383 14.4828 63.7473C14.2569 63.8111 13.8933 64.0392 13.6266 64.045V64.0469ZM12.3662 60.4558C13.2407 60.077 14.0193 59.4247 14.2879 58.5076C14.4198 58.0553 14.3994 57.3354 14.284 56.8667C14.1279 56.2318 13.5966 55.5543 13.0362 55.2692L12.3022 54.8962C11.4577 54.4671 9.90538 55.3166 9.44095 56.1979L9.00561 57.0252C8.85823 57.3044 8.86599 57.9925 9.00173 58.2805L9.35757 59.0381C9.53403 59.4131 9.91992 59.848 10.2884 60.0751C11.2046 60.6375 11.0737 60.5505 12.3671 60.4558H12.3662Z" fill="#491B11"/>
<path d="M22.3068 81.3645C21.4555 80.7943 20.5596 79.6472 20.2193 78.7523L19.8383 77.7482C19.7277 77.4574 19.7025 74.9979 19.8712 74.5166L20.26 73.4043C20.9765 71.746 23.0757 69.9476 24.9247 69.8471C25.9156 69.7929 26.9075 69.6982 27.8994 69.9389C28.3725 70.0539 28.836 70.5168 29.3809 70.2723L29.3954 65.6278L33.3445 65.6172V82.2332L30.3243 82.2352L30.0964 81.5307C29.6048 81.2514 29.1773 81.8902 28.4346 82.1453C28.0535 82.2758 27.7258 82.3937 27.3273 82.5077C26.635 82.7058 25.6305 82.7164 24.9383 82.5096L23.7156 82.1443C23.3908 82.0477 22.6607 81.6012 22.3078 81.3645H22.3068ZM29.4167 76.9664C29.5399 76.5209 29.5166 75.7942 29.409 75.3158C29.2364 74.5514 28.4549 73.7696 27.6744 73.4169C27.4621 73.3212 27.0384 73.2903 26.7562 73.2661C25.5976 73.1666 24.4127 73.8769 24.0065 74.9341C23.3559 75.8706 23.7137 76.7509 24.2964 77.6265C24.7385 78.2904 25.3707 78.6344 26.1027 78.8528C27.081 79.1447 29.0464 78.3107 29.4177 76.9664H29.4167Z" fill="#491B11"/>
<path d="M29.8686 45.2424C29.5254 45.4241 29.1976 45.4792 28.8059 45.5527C27.8519 45.7334 26.9056 45.8078 25.9621 45.5391C25.776 45.486 25.3659 45.5285 25.2068 45.4135C24.9315 45.2125 24.5582 45.054 24.1539 45.1574C24.055 46.2369 23.9871 47.269 24.0947 48.3532C24.1422 48.8287 24.085 49.2829 23.958 49.769L20.1621 49.7526V33.1723C21.0289 33.1433 21.7716 33.1336 22.6035 33.1568C22.9875 33.1674 23.2376 33.6419 23.4112 34.013C23.7573 33.9502 24.7473 33.2969 24.9741 33.2283L26.317 32.8205C26.7708 32.6823 27.5978 32.7074 28.0526 32.8253L29.5583 33.2177C29.7823 33.2757 30.1566 33.4738 30.3708 33.5869C31.0941 33.9676 31.7011 34.446 32.1859 35.0722C32.4254 35.3824 32.7638 35.7245 32.9053 36.054C33.0023 36.2802 33.2001 36.6213 33.2389 36.8049L33.6422 38.7522C33.7702 39.3716 33.6063 39.8394 33.5016 40.4405L33.299 41.5992L32.8966 42.4853C32.5204 43.3155 31.5886 44.2036 30.8294 44.739C30.5308 44.9496 30.1711 45.082 29.8667 45.2434L29.8686 45.2424ZM28.5994 41.2948C28.8496 41.1285 28.9979 40.8299 29.1307 40.6028C30.0829 38.9745 29.0794 37.147 27.3118 36.4454C26.6835 36.1961 26.0921 36.3275 25.4706 36.5855C24.7405 36.888 24.276 37.4466 23.9241 38.1569C23.5314 38.9503 23.5198 39.5929 23.9619 40.3815C24.3652 41.1015 25.0304 41.8301 25.9088 41.9896C26.4043 42.0785 26.987 42.0418 27.529 42.007L28.5984 41.2948H28.5994Z" fill="#491B11"/>
<path d="M78.7328 82.1315L77.4859 82.4562C77.0534 82.5693 76.493 82.6331 76.0557 82.49C74.3182 81.9247 75.6611 82.635 73.7607 81.7643C73.051 81.4386 72.763 81.1091 72.1716 80.5495C70.3061 78.7849 70.2848 76.2974 70.6668 73.9684C72.1057 70.5262 75.0067 69.0959 78.5815 69.9396C78.7754 69.985 79.1235 70.2044 79.2971 70.2991L80.4412 70.9214L80.7699 70.0884L83.2917 70.0575C83.4149 70.0556 83.699 70.1802 83.7688 70.2894V82.1393L80.7844 82.1605L80.5245 81.5894C80.3006 81.0975 79.4192 81.9508 78.7318 82.1296L78.7328 82.1315ZM76.2448 78.7762C76.7655 79.0062 77.0951 78.9724 77.5935 78.8158C78.5602 78.5124 78.9625 78.35 79.5773 77.4561C80.0504 76.7681 79.9903 75.5466 79.649 74.9493C79.2592 74.268 78.8481 73.5858 78.0133 73.3819C77.3172 73.2118 76.8789 73.0852 75.9772 73.4166C75.2074 73.6998 74.7158 74.4053 74.3454 75.0614C73.9295 75.7988 73.9517 76.2994 74.3367 77.0396C74.9097 78.1403 75.0736 78.2582 76.2438 78.7762H76.2448Z" fill="#491B11"/>
<path d="M30.5529 63.14C28.9366 64.0697 26.9907 64.2881 25.0767 63.9721C24.7035 63.9102 24.1838 63.6783 23.8153 63.5826C23.6078 63.5285 23.2404 63.3217 23.059 63.2241C22.0478 62.6829 21.3681 61.876 20.7563 60.9637C20.6138 60.7521 20.5275 60.4708 20.4101 60.2234C20.2686 59.9258 20.1697 59.6852 20.1319 59.3469C20.0475 58.5941 19.8924 57.8761 19.999 57.1126L20.222 55.5133C20.2492 55.3219 20.4625 54.9566 20.5517 54.7846C21.1926 53.5583 21.9712 52.7687 23.1521 52.0739C23.4789 51.8816 25.0137 51.3907 25.1184 51.3781C26.2063 51.2447 27.3019 51.2921 28.3694 51.3578C28.5692 51.3704 28.9047 51.6651 29.1597 51.6497C29.4147 51.6342 29.6532 51.7927 29.8655 51.8864C30.7556 52.2788 31.5128 52.8364 32.1217 53.5989C32.6938 54.315 32.6909 54.4164 33.0709 55.1886C33.2794 55.6138 33.357 55.9462 33.3861 56.442C33.4452 57.4741 33.5131 59.0841 33.1398 59.977C32.5978 61.2729 31.825 62.4075 30.5539 63.139L30.5529 63.14ZM28.1377 60.1017C29.2789 59.4107 29.7579 58.1283 29.3545 56.8546C29.054 55.9056 28.255 55.3461 27.4076 55.0175C26.6155 54.7102 26.5951 54.7479 25.611 55.0765C24.7296 55.3703 24.0926 56.2033 24.0102 57.0315C23.5836 57.4373 23.7649 57.8548 23.9152 58.3177C24.1421 59.0126 24.4455 59.7789 25.2193 60.1036L26.0269 60.4428C26.5835 60.6767 27.4958 60.4911 28.1367 60.1017H28.1377Z" fill="#491B11"/>
<path d="M40.6112 54.7603C40.3262 54.827 40.1012 54.8589 39.9034 55.0309C39.6591 55.2455 39.3314 55.517 39.2432 55.7915L38.9009 56.8593L38.8728 63.2017C38.9038 63.5033 38.6837 63.6917 38.3928 63.6898L34.9023 63.6646L34.9043 51.636L37.2342 51.6041C38.0961 51.5925 37.9333 52.4642 38.1795 52.6546C38.4646 52.8749 39.1103 52.0777 39.9287 51.7182L40.7741 51.3471C42.372 51.3461 43.2388 51.0436 44.5099 51.7636C45.2458 52.1801 45.8712 52.8343 46.2368 53.5369C46.4345 53.9177 46.5141 54.2375 46.6323 54.6241C46.7574 55.0329 46.931 55.4049 46.931 55.8543L46.9281 63.2926C46.9281 63.483 46.7293 63.6772 46.5538 63.6772L43.3367 63.6811C43.1651 63.6811 42.8927 63.5873 42.753 63.482L42.7337 57.0217C42.7337 56.6922 42.6706 56.2776 42.6348 55.9683C42.5165 54.9488 41.5023 54.5516 40.6103 54.7594L40.6112 54.7603Z" fill="#491B11"/>
<path d="M47.5605 36.4385C46.6734 35.8644 45.3092 36.5167 44.8796 37.5817C44.7633 37.8697 44.6004 38.2321 44.6004 38.5558L44.6023 44.8528C44.6023 45.0142 44.3803 45.2161 44.229 45.2161H41.4851C41.2136 45.2171 40.9053 45.1272 40.6426 45.0103L40.6406 33.5354C40.6406 33.2764 40.8694 33.1353 41.0944 33.1363L43.3254 33.1469L43.9411 34.2438C44.3473 34.3945 44.7846 33.5944 45.9559 33.1663C46.2564 33.0561 46.5948 32.9121 46.8935 32.8367C47.4626 32.6927 48.3333 32.6734 48.8937 32.8319C50.1629 33.1924 51.2653 33.7461 51.8839 34.9618C51.9905 35.1725 52.2145 35.5291 52.263 35.7233C52.3784 36.1862 52.5073 36.738 52.5199 37.2077L52.5878 39.7087C52.5956 40.0083 52.5849 40.2895 52.582 40.592L52.5442 45.0721C51.849 45.3563 51.1877 45.1475 50.5158 45.1659C49.8284 45.1852 49.1506 45.2983 48.4807 45.0325L48.469 37.7895C48.469 37.2357 48.0075 36.7264 47.5615 36.4385H47.5605Z" fill="#491B11"/>
<path d="M69.4304 81.8735C69.4304 82.0301 69.2045 82.234 69.0436 82.235L66.2182 82.2456C65.7363 82.2475 65.3369 82.1055 64.8938 81.9402C64.0464 81.6242 63.2804 81.1748 62.8567 80.2867C62.5202 79.5803 62.367 79.4576 62.3632 78.4757L62.3428 73.5317C62.3428 73.3259 61.8658 73.1519 61.6786 73.1529L60.3998 73.1577C60.234 73.1577 59.9809 72.918 59.9421 72.7711C59.9033 72.6243 59.9576 72.2503 60.073 72.1275L64.2965 67.6493L65.3407 66.5553C65.5027 66.3853 66.1533 66.2432 66.1853 66.6153C66.257 67.4637 66.2425 68.32 66.2046 69.211C66.1901 69.5482 66.1785 70.0498 66.7292 70.0517L68.5627 70.0585C68.839 70.0585 69.2288 70.2112 69.2297 70.5446L69.2385 72.6871C69.2385 72.8494 68.9292 73.1548 68.7527 73.1558L66.6342 73.1654C66.5023 73.1654 66.3191 73.4418 66.321 73.5597C66.3452 74.9262 66.2589 76.3284 66.3734 77.691C66.4412 78.497 67.5058 78.7811 68.1186 78.7666C68.6228 78.755 68.9166 78.7627 69.413 78.7782L69.4295 81.8755L69.4304 81.8735Z" fill="#491B11"/>
<path d="M89.2156 74.8868L89.1962 82.2013L85.3586 82.2381L85.2801 78.9021L85.2559 70.9323L85.2714 69.8674L85.3111 67.5316L85.3441 65.6172L89.1895 65.6211L89.2108 70.4433L89.2437 70.9961L89.2185 72.0359C89.1914 73.1666 89.2185 73.6884 89.2147 74.8877L89.2156 74.8868Z" fill="#491B11"/>
<path d="M59.0747 82.1549L55.2758 82.1568C55.1847 82.0476 55.0713 81.7867 55.0713 81.6398L55.0684 70.4761C55.1324 70.2113 55.302 70.0645 55.5435 70.0645L58.967 70.0673C59.1299 70.0673 59.3432 70.2539 59.3432 70.4568L59.3471 81.7394C59.3471 81.8379 59.2162 82.1549 59.0756 82.1549H59.0747Z" fill="#491B11"/>
<path d="M38.9862 81.6978C38.9862 81.9414 38.7661 82.1646 38.5955 82.1636L34.9033 82.1424L34.9004 70.3757C34.9004 70.2636 35.0856 70.0664 35.1864 70.0664L38.4917 70.0722C38.8301 70.0722 38.9881 70.4394 38.9881 70.74L38.9862 81.6978Z" fill="#491B11"/>
<path d="M38.8738 44.5903C38.8738 44.9991 38.6605 45.2252 38.3027 45.2223L35.7672 45.2069C35.5239 45.205 35.201 45.1305 34.9043 45.089L34.9072 33.1589L38.5674 33.1367C38.6789 33.1367 38.8592 33.33 38.8747 33.4353V44.5903H38.8738Z" fill="#491B11"/>
</svg>
