<svg width="164" height="39" viewBox="0 0 164 39" fill="none" xmlns="http://www.w3.org/2000/svg">
<path d="M21.672 33.0423C20.1976 34.1071 18.1499 33.916 16.8666 32.6327L6.35485 22.1209C4.90777 20.6466 4.90777 18.2985 6.35485 16.8514L16.8666 6.33962C18.1499 5.05637 20.1976 4.89255 21.672 5.93007L24.9757 2.62637C25.1122 2.46255 25.2761 2.35333 25.4126 2.21682C21.8631 -0.895763 16.4844 -0.704639 13.1261 2.62637L2.6416 13.1108C-0.880533 16.633 -0.880533 22.3121 2.6416 25.8342L13.1261 36.3187C16.4571 39.677 21.8358 39.8681 25.4126 36.7282C25.2488 36.5917 25.1122 36.4552 24.9757 36.3187L21.672 33.0423Z" fill="#491B11"/>
<path d="M25.4395 9.61568L32.6748 16.8238C34.1219 18.2981 34.1219 20.6735 32.6748 22.1206L25.4395 29.3833L28.7159 32.6597C28.8524 32.7962 29.0162 32.9327 29.18 33.0692L36.3881 25.8885C39.8829 22.3663 39.8829 16.6872 36.3881 13.1651L29.18 5.95703C29.0162 6.06624 28.8524 6.20276 28.7159 6.36658L25.4395 9.61568Z" fill="#491B11"/>
<path d="M48.1831 13.1391L37.6986 2.65461C34.3676 -0.703697 28.9888 -0.89482 25.4121 2.24506C25.5759 2.38158 25.7124 2.5181 25.849 2.65461L29.1527 5.95832C30.627 4.89348 32.6748 5.0573 33.9581 6.36787L44.4698 16.8797C45.9169 18.354 45.9169 20.7021 44.4698 22.1492L33.9854 32.661C32.7021 33.9442 30.6544 34.1081 29.18 33.0705L25.8763 36.3742C25.7397 36.5381 25.5759 36.6473 25.4394 36.7838C28.9888 39.8964 34.3676 39.7052 37.7259 36.3742L48.2104 25.8898C51.6779 22.3403 51.6779 16.6612 48.1831 13.1391Z" fill="#491B11"/>
<path d="M18.2045 16.851L25.4399 9.61564L22.1908 6.33924C22.0543 6.17542 21.8631 6.0389 21.6993 5.92969L14.5186 13.1105C10.9964 16.6326 10.9964 22.3117 14.5186 25.8338L21.6993 33.0146C21.8905 32.9054 22.0543 32.7689 22.1908 32.605L25.4399 29.3286L18.2045 22.0933C16.7574 20.6735 16.7574 18.3254 18.2045 16.851Z" fill="#491B11"/>
<path d="M21.6719 5.9554C21.8357 6.06461 21.9995 6.20113 22.136 6.36495L25.4124 9.64135L28.6888 6.36495C28.8253 6.20113 28.9892 6.06461 29.153 5.9554L25.8766 2.62439L25.4397 2.21484L25.0029 2.62439L21.6719 5.9554Z" fill="#491B11"/>
<path d="M29.1803 33.0414C29.0165 32.9322 28.8527 32.7957 28.7162 32.6319L25.4398 29.3555L22.1634 32.6319C22.0269 32.7957 21.863 32.9049 21.6992 33.0414L25.0029 36.3451C25.1394 36.5089 25.3033 36.6182 25.4398 36.7547C25.6036 36.6182 25.7401 36.4816 25.8766 36.3451L29.1803 33.0414Z" fill="#491B11"/>
<path d="M59.9238 2.78761C59.8692 2.32345 60.1968 1.8866 60.6883 1.80469H75.1317C81.7392 1.80469 86.4626 7.89333 86.4626 13.9274C86.4626 19.9614 81.6026 25.9681 75.0225 25.9681H67.0227V37.2444C67.0227 37.8724 66.6677 38.2273 66.0397 38.2273H60.8521C60.1968 38.2273 59.8965 37.8724 59.8965 37.2444L59.9238 2.78761ZM67.0227 8.02985V19.743H73.6847C76.9065 19.743 79.1726 16.958 79.1726 13.9274C79.1726 10.8967 76.9065 8.00254 73.6847 8.00254H67.0227V8.02985Z" fill="#491B11"/>
<path d="M98.9132 14.0638L96.2921 37.217C96.2375 37.845 95.9918 38.2 95.3092 38.2H90.2854C89.6574 38.2 89.3025 37.845 89.3571 37.217L93.0703 2.73292C93.1249 2.13224 93.4253 1.75 94.1078 1.75H100.497C101.016 1.75 101.179 2.05034 101.371 2.62371L109.316 26.9237L117.097 2.67831C117.343 2.05034 117.534 1.75 118.026 1.75H124.578C125.206 1.75 125.561 2.10494 125.616 2.73292L129.275 37.217C129.384 37.845 128.974 38.2 128.346 38.2H123.322C122.667 38.2 122.421 37.8996 122.312 37.2716L119.828 14.0638L112.319 36.5891C112.019 37.3263 111.828 37.4628 111.282 37.4628H107.159C106.695 37.4628 106.422 37.3263 106.176 36.5891L98.9132 14.0638Z" fill="#491B11"/>
<path d="M162.938 19.6057H156.304C155.648 19.633 154.993 19.906 154.502 20.3429L150.461 24.3838L150.324 24.5203C150.024 24.8752 150.078 25.394 150.433 25.667C150.597 25.8036 150.788 25.8582 151.007 25.8582H157.614V30.3632C156.031 31.5646 153.874 32.056 152.017 32.056C145.328 32.1379 140.085 26.5407 140.085 19.8787C140.085 13.2167 144.481 8.11099 151.307 8.11099C153.491 8.11099 155.621 8.76627 157.423 9.99492L157.478 10.0495C157.641 10.186 157.833 10.2953 158.024 10.3499C158.351 10.4045 158.652 10.268 158.87 10.0222L161.819 7.07346L162.392 6.5274C162.829 6.06324 162.829 5.57178 162.392 5.13492L162.338 5.08032L162.147 4.9438C159.061 2.59571 155.566 1.28516 151.171 1.28516C140.768 1.28516 133.15 9.58537 133.15 19.9333C133.178 30.3086 141.587 38.718 151.962 38.718H151.99C156.058 38.6907 160.017 37.4621 163.375 35.1413C163.703 34.8683 163.867 34.486 163.839 34.0492V20.6159C163.867 19.7968 163.375 19.6057 162.938 19.6057Z" fill="#491B11"/>
</svg>
