<svg width="241" height="50" viewBox="0 0 241 50" fill="none" xmlns="http://www.w3.org/2000/svg">
<path d="M236.76 9.78287L231.621 9.78125L231.617 20.9991C230.01 18.152 227.027 17.4384 223.997 18.0007C220.982 18.6582 219.008 20.8072 218.098 23.7056C217.626 25.2105 217.515 26.7296 217.583 28.3088C217.653 29.9514 217.921 31.504 218.635 33.0062C219.794 35.4433 221.996 36.9813 224.637 37.2839C227.37 37.5972 230.01 36.4955 231.476 34.1306L231.56 33.9965C231.572 33.9754 231.591 34.0244 231.619 34.092L231.622 36.9507L236.76 36.939V9.78287H236.76ZM231.256 30.6621C230.418 32.7118 228.49 33.567 226.375 33.2429C224.272 32.9205 223.197 31.1501 222.936 29.1592C222.719 27.5017 222.798 25.3965 223.591 23.8962C224.551 22.0803 226.452 21.5371 228.376 21.889C229.712 22.1335 230.726 23.0212 231.239 24.278C231.949 26.017 231.965 28.9287 231.256 30.6624V30.6621Z" fill="#491B11"/>
<path d="M209.461 18.3214C207.255 17.6286 204.861 17.6425 202.673 18.401C198.604 19.8117 196.433 23.6422 196.59 27.8682C196.632 29.0036 196.756 30.062 197.093 31.1416C197.861 33.5997 199.617 35.5166 201.996 36.4948C203.597 37.1533 205.29 37.3701 207.033 37.2896C211.045 37.1042 214.571 35.3779 215.205 31.0159L210.64 31.0169C210.42 32.0679 209.745 32.7484 208.845 33.1818C207.637 33.686 206.304 33.7623 205.021 33.4588C202.846 32.8711 201.906 30.8938 201.848 28.7627H215.245C215.278 26.7351 215.258 25.0065 214.538 23.1149C213.661 20.7854 211.84 19.0692 209.461 18.3218V18.3214ZM201.882 25.5971C202.12 23.5296 203.373 21.6977 205.585 21.4614C207.353 21.2724 209.069 21.8549 209.779 23.6117C210.021 24.2263 210.143 24.8286 210.194 25.5945L201.882 25.5971Z" fill="#491B11"/>
<path d="M147.091 18.3217C144.932 17.6424 142.597 17.6434 140.442 18.3525C136.296 19.7165 134.058 23.5827 134.219 27.8681C134.261 28.9863 134.381 30.0282 134.706 31.0924C135.516 33.748 137.48 35.7619 140.097 36.6769C141.612 37.2067 143.175 37.372 144.793 37.2834C148.762 37.0665 152.208 35.3207 152.836 31.0142L148.27 31.0174C148.041 32.1032 147.326 32.8002 146.381 33.2213C145.227 33.6772 143.974 33.7506 142.754 33.4834C140.515 32.9389 139.536 30.9418 139.477 28.7626H152.875C152.907 26.6905 152.885 24.9041 152.112 22.9762C151.217 20.7106 149.418 19.0538 147.091 18.3217H147.091ZM139.511 25.5973C139.596 24.7928 139.852 24.021 140.277 23.3236C141.333 21.5847 143.311 21.1116 145.19 21.6161C146.176 21.8808 146.934 22.5561 147.352 23.485C147.632 24.136 147.773 24.7837 147.819 25.5947L139.511 25.5973Z" fill="#491B11"/>
<path d="M88.1783 26.8156C88.1745 25.4906 87.9195 24.2322 87.4397 23.0072C86.5869 20.8302 84.9048 19.1935 82.6925 18.4163C80.4316 17.6221 77.9349 17.6117 75.6641 18.3831C71.5474 19.7819 69.3658 23.6422 69.5367 27.9189C69.5813 29.0344 69.7046 30.0698 70.0352 31.128C71.1184 34.5926 73.992 36.7107 77.5257 37.1835C79.1983 37.4072 80.8526 37.3179 82.4935 36.9448C83.8333 36.6127 85.0362 36.0578 86.0628 35.1364C87.2336 34.0604 87.9357 32.6224 88.1563 31.0114L83.5842 31.0163C83.3554 32.1091 82.643 32.7799 81.7287 33.2062C80.53 33.689 79.2174 33.7526 77.9479 33.4536C75.7767 32.8468 74.8614 30.9026 74.7892 28.7601H88.1848L88.179 26.8156H88.1783ZM74.8167 25.5945C74.9148 24.8507 75.1283 24.1445 75.4907 23.4906C76.5188 21.6351 78.5302 21.0874 80.496 21.6101C81.5491 21.89 82.3398 22.6409 82.741 23.653C82.9691 24.2578 83.0901 24.8426 83.1367 25.5926L74.8167 25.5945Z" fill="#491B11"/>
<path d="M168.681 18.038C167.263 17.7026 165.799 17.7467 164.409 18.1789C162.833 18.6688 161.617 19.6724 160.777 21.1344L160.745 18.2285L155.6 18.2357V36.9188L160.759 36.9182L160.76 26.1097C160.786 25.4454 160.854 24.8578 161.084 24.2594C161.851 22.2685 164.025 21.685 165.91 22.1902C167.426 22.5967 167.878 24.0811 167.914 25.5266V36.9188L173.083 36.9178L173.082 24.812C173.059 21.7597 171.884 18.7951 168.681 18.0383L168.681 18.038Z" fill="#491B11"/>
<path d="M126.195 18.2337L126.193 29.312C126.193 29.9681 126.069 30.5782 125.824 31.1655C125.07 32.974 123.14 33.5568 121.331 33.2084C119.739 32.9016 119.146 31.498 119.086 29.9844L119.085 18.2305L113.932 18.2331L113.939 30.387C114.013 31.6035 114.126 32.7103 114.58 33.8191C115.236 35.4198 116.492 36.5831 118.172 37.049C119.692 37.4704 121.294 37.4318 122.798 36.949C124.299 36.4675 125.414 35.4467 126.182 34.0785L126.205 36.9227L131.335 36.9136V18.2318L126.195 18.2344L126.195 18.2337Z" fill="#491B11"/>
<path d="M189.169 31.3517C188.274 33.1929 186.279 33.701 184.393 33.2974C182.522 32.8971 181.504 31.3815 181.19 29.5672C180.986 28.3871 180.97 27.2072 181.141 26.0215C181.42 24.1023 182.485 22.3919 184.476 21.9812C185.296 21.8121 186.118 21.8416 186.919 22.0747C188.325 22.4841 189.004 23.6439 189.258 25.065L194.118 25.0601C193.698 20.2588 190.417 18.0231 185.941 17.8322C184.399 17.7663 182.928 17.9715 181.499 18.5335C178.741 19.6185 176.745 21.9293 176.062 24.8403C175.606 26.7848 175.623 28.827 176.112 30.7569C176.839 33.6247 178.892 35.8143 181.689 36.7507C184.083 37.552 186.696 37.5211 189.099 36.7455C192.217 35.6211 194.029 33.101 194.232 29.8215L189.587 29.8221C189.502 30.3776 189.383 30.8591 189.169 31.352V31.3517Z" fill="#491B11"/>
<path d="M20.3002 35.2482C19.1886 34.1709 19.1973 32.5741 20.2779 31.5154C21.1793 30.6322 21.2152 29.1852 20.4089 28.2189C19.4467 27.066 17.7045 26.928 16.6097 27.9683C15.5883 28.9391 14.036 29.0371 12.9641 28.0907C11.8576 27.1137 11.8402 25.4524 12.8881 24.4261C13.9004 23.4345 13.8897 21.8287 12.8612 20.8524C11.8324 19.8758 10.2257 19.865 9.2053 20.8628L5.43549 24.5488C4.53574 25.4287 4.52086 27.0212 5.44163 27.9186L20.1695 42.2722C21.2288 43.3043 22.8963 43.3261 23.9329 42.268C24.9297 41.2507 24.8795 39.6865 23.8633 38.7014L20.2999 35.2478L20.3002 35.2482Z" fill="#491B11"/>
<path d="M97.2657 15.8445C97.2957 15.5319 97.3436 15.2244 97.4116 14.9224C97.6636 14.1711 98.2476 13.6646 99.038 13.5478C99.8034 13.4393 100.546 13.5569 101.3 13.7887L101.299 9.8851C99.5663 9.44647 97.784 9.44322 96.1058 9.94874C93.413 10.7604 92.1804 13.1332 92.1616 15.8163L92.1444 18.2328L89.6934 18.2351L89.6963 21.9377L92.1254 21.9435L92.1247 36.9734L97.2705 36.9754V21.9637L101.296 21.9588L101.301 18.2672L97.2741 18.2614L97.266 15.8445H97.2657Z" fill="#491B11"/>
<path d="M60.6183 21.7269L60.5904 18.2304L55.123 18.2347V36.9486L60.5992 36.9451V27.4071C60.6296 26.1382 61.2255 25.072 62.222 24.3246C62.9238 23.8019 63.7048 23.4782 64.5544 23.2317C65.7492 22.9132 66.931 22.7999 68.219 22.7931L68.8134 17.9727C67.4131 17.9821 66.1064 18.097 64.8216 18.4886C63.0318 19.009 61.6157 20.0915 60.6179 21.7269H60.6183Z" fill="#491B11"/>
<path d="M104.859 9.78384V36.9501L109.991 36.941L109.989 9.77734L104.859 9.78384Z" fill="#491B11"/>
<path d="M34.8993 24.4418L31.3236 27.9307C30.3197 28.9103 28.7146 29.0775 27.6583 28.0759C26.6068 27.0785 25.0221 26.9557 23.926 27.9765C22.9095 28.9229 22.8182 30.5333 23.8538 31.547L27.4716 35.0882C28.4923 36.0872 30.1323 36.2272 31.1964 35.1924L38.5788 28.0135C39.5569 27.0625 39.5999 25.5473 38.6811 24.5457C37.6765 23.4509 35.9669 23.3999 34.8993 24.4418Z" fill="#491B11"/>
<path d="M23.737 24.2736C24.784 25.4677 26.5311 25.4619 27.666 24.3521L31.2527 20.8453C32.1716 19.9469 32.2486 18.5112 31.4472 17.5245C30.3698 16.1979 28.5379 16.2979 27.359 17.457L23.8325 20.9239C22.9052 21.8356 22.891 23.3083 23.737 24.2736Z" fill="#491B11"/>
<path d="M20.2311 17.2833L23.8635 13.7544C24.8476 12.7982 24.9453 11.2846 24 10.2518C23.0342 9.19658 21.3295 9.0732 20.2816 10.0927L16.504 13.7674C15.5486 14.6969 15.5503 16.2167 16.4503 17.1885C17.4523 18.2703 19.1473 18.3365 20.2315 17.2833H20.2311Z" fill="#491B11"/>
<path d="M16.4708 20.9387C15.6102 21.8462 15.5458 23.2166 16.3301 24.1955C17.3185 25.429 19.1817 25.5325 20.2921 24.3595C21.2413 23.3572 21.1996 21.8494 20.2536 20.8968C19.2053 19.841 17.4935 19.8601 16.4708 20.9387Z" fill="#491B11"/>
</svg>
